<svg xmlns="http://www.w3.org/2000/svg" viewBox="15656 -726 11.816 12">
  <g id="icon_cabinet-01-01" transform="translate(15656 -726)">
    <path id="Path_6388" data-name="Path 6388" d="M11.608,1.665a.858.858,0,0,0-.784-.343H2.841l-.1-.392A1.323,1.323,0,0,0,1.518,0H.637A.617.617,0,0,0,0,.637a.617.617,0,0,0,.637.637h.931L2.939,7.935a1.262,1.262,0,0,0,1.176.931h6.759a.6.6,0,0,0,.637-.539.617.617,0,0,0-.637-.637H4.163l-.147-.637,6.171-.588a1.2,1.2,0,0,0,1.127-1.029L11.8,2.5A1.246,1.246,0,0,0,11.608,1.665ZM10.09,5.192c0,.049-.049.049,0,0l-6.318.637L3.086,2.547H10.58Z"/>
    <path id="Path_6389" data-name="Path 6389" d="M8.02,18.8A1.421,1.421,0,0,0,6.6,20.22a1.38,1.38,0,0,0,1.42,1.371A1.457,1.457,0,0,0,9.49,20.22,1.433,1.433,0,0,0,8.02,18.8Zm0,1.567c-.147,0-.2-.1-.2-.245s.1-.147.2-.147a.231.231,0,0,1,.245.245C8.265,20.318,8.167,20.367,8.02,20.367Z" transform="translate(-3.367 -9.592)"/>
    <path id="Path_6390" data-name="Path 6390" d="M19.32,18.8a1.421,1.421,0,0,0-1.42,1.42,1.38,1.38,0,0,0,1.42,1.371A1.457,1.457,0,0,0,20.79,20.22,1.433,1.433,0,0,0,19.32,18.8Zm0,1.567c-.147,0-.2-.1-.2-.245,0-.1.147-.147.2-.147a.231.231,0,0,1,.245.245C19.565,20.318,19.467,20.367,19.32,20.367Z" transform="translate(-9.133 -9.592)"/>
  </g>
</svg>
