<svg xmlns="http://www.w3.org/2000/svg" viewBox="15656 -823 12 12">
  <style>
    path {fill:#cccccc}
  </style>
  <g id="icon_cabinet-03" transform="translate(15656 -823)">
    <g id="Group_9504" data-name="Group 9504">
      <path id="Path_6384" data-name="Path 6384" d="M10.4,12H1.6A1.58,1.58,0,0,1,0,10.4V1.6A1.58,1.58,0,0,1,1.6,0h8.7A1.605,1.605,0,0,1,12,1.6v8.7A1.605,1.605,0,0,1,10.4,12ZM1.7,10.3h8.6V1.7H1.7Z"/>
    </g>
    <g id="Group_9505" data-name="Group 9505">
      <path id="Path_6385" data-name="Path 6385" d="M3.5,4h5A.472.472,0,0,0,9,3.5.472.472,0,0,0,8.5,3h-5a.472.472,0,0,0-.5.5A.472.472,0,0,0,3.5,4Z"/>
      <path id="Path_6386" data-name="Path 6386" d="M8.5,8h-5a.5.5,0,0,0,0,1h5a.5.5,0,0,0,0-1Z"/>
      <path id="Path_6387" data-name="Path 6387" d="M8.5,5.5h-5a.5.5,0,0,0,0,1h5a.5.5,0,0,0,0-1Z"/>
    </g>
  </g>
</svg>
