<svg xmlns="http://www.w3.org/2000/svg" viewBox="15656 -775 11.5 12">
  <g id="icon_cabinet-02" transform="translate(15656 -775)">
    <g id="Group_9502" data-name="Group 9502">
      <path id="Path_6382" data-name="Path 6382" d="M5.7,7.4A3.757,3.757,0,0,1,2,3.7,3.757,3.757,0,0,1,5.7,0,3.757,3.757,0,0,1,9.4,3.7,3.691,3.691,0,0,1,5.7,7.4Zm0-5.7a2,2,0,1,0,2,2A2.006,2.006,0,0,0,5.7,1.7Z"/>
    </g>
    <g id="Group_9503" data-name="Group 9503">
      <path id="Path_6383" data-name="Path 6383" d="M9.9,12H1.6A1.58,1.58,0,0,1,0,10.4,3.69,3.69,0,0,1,.8,8.2,4.887,4.887,0,0,1,2.6,6.8a7.455,7.455,0,0,1,3.1-.6,7.943,7.943,0,0,1,3.2.6,3.677,3.677,0,0,1,1.8,1.4,3.69,3.69,0,0,1,.8,2.2A1.58,1.58,0,0,1,9.9,12ZM1.7,10.3h8a1.929,1.929,0,0,0-.5-1.1h0a1.789,1.789,0,0,0-1-.9,6.249,6.249,0,0,0-2.5-.4,5.748,5.748,0,0,0-2.4.4,2.012,2.012,0,0,0-1.1.9A1.707,1.707,0,0,0,1.7,10.3Z"/>
    </g>
  </g>
</svg>
