<svg xmlns="http://www.w3.org/2000/svg" viewBox="10401 2227 16 16">
  <defs>
    <style>
      .cls-1 {
        fill: #2ac278;
      }
    </style>
  </defs>
  <g id="_603c295edff10f59f6b9c555c7ce0d09" data-name="603c295edff10f59f6b9c555c7ce0d09" transform="translate(10401 2227)">
    <path id="Path_2869" data-name="Path 2869" class="cls-1" d="M6.7,11.44a.2.2,0,0,0,.1-.08L12.46,5.7a.41.41,0,0,0,0-.58l-.3-.3a.41.41,0,0,0-.58,0L6.52,9.92,4.28,7.66a.41.41,0,0,0-.58,0l-.3.3a.41.41,0,0,0,0,.58l2.82,2.82A.4.4,0,0,0,6.7,11.44ZM0,8a8,8,0,1,1,8,8A8,8,0,0,1,0,8Z"/>
  </g>
</svg>
