<svg xmlns="http://www.w3.org/2000/svg" viewBox="10402 2449 24 24">
  <defs>
    <style>
      .cls-1 {
        fill: #6383a8;
      }
    </style>
  </defs>
  <g id="all_round-26" transform="translate(10402 2449)">
    <path id="Path_2934" data-name="Path 2934" class="cls-1" d="M12,0A12,12,0,1,0,24,12,12.035,12.035,0,0,0,12,0Zm5.963,15.863L16.2,15.9a1.219,1.219,0,0,1-.862-.263c-.637-.45-1.275-1.612-1.762-1.462-.488.113-.45,1.2-.45,1.2a.555.555,0,0,1-.112.338.817.817,0,0,1-.375.15H11.85a4.469,4.469,0,0,1-3.262-1.5,22,22,0,0,1-3.15-5.175s-.075-.225,0-.338a.645.645,0,0,1,.375-.112H7.688a1.015,1.015,0,0,1,.3.112.425.425,0,0,1,.15.225,12.872,12.872,0,0,0,.712,1.462c.788,1.35,1.163,1.65,1.425,1.5.375-.225.262-1.912.262-1.912a2.16,2.16,0,0,0-.187-.9.919.919,0,0,0-.6-.3c-.112,0,.075-.263.3-.375A4.082,4.082,0,0,1,11.7,8.4a4.275,4.275,0,0,1,.937.075c.638.15.413.75.413,2.212,0,.45-.075,1.125.262,1.35.15.075.488,0,1.387-1.462a11.146,11.146,0,0,0,.713-1.538.671.671,0,0,1,.188-.225.368.368,0,0,1,.263-.038H17.85s.6-.075.675.188c.112.3-.225.938-1.013,2.025C16.2,12.75,16.05,12.6,17.137,13.613a6.761,6.761,0,0,1,1.313,1.5C18.9,15.787,17.963,15.863,17.963,15.863Z"/>
  </g>
</svg>
