<svg xmlns="http://www.w3.org/2000/svg" viewBox="10566 2449 24 24">
  <defs>
    <style>
      .cls-1 {
        fill: #1da1f2;
      }
    </style>
  </defs>
  <g id="all_round-01" transform="translate(10566 2449)">
    <path id="Path_2932" data-name="Path 2932" class="cls-1" d="M12,0A12,12,0,1,0,24,12,12.035,12.035,0,0,0,12,0Zm4.763,9.6v.3A6.913,6.913,0,0,1,9.75,16.8a7.21,7.21,0,0,1-3.788-1.087,3.031,3.031,0,0,0,.6.037A4.92,4.92,0,0,0,9.638,14.7,2.433,2.433,0,0,1,7.35,13.012a1.826,1.826,0,0,0,.45.037,3.3,3.3,0,0,0,.638-.075A2.444,2.444,0,0,1,6.45,10.612v-.038a2.291,2.291,0,0,0,1.125.3A2.377,2.377,0,0,1,6.488,8.85a2.141,2.141,0,0,1,.338-1.2,7.086,7.086,0,0,0,5.063,2.55,2.9,2.9,0,0,1-.075-.563A2.441,2.441,0,0,1,14.287,7.2a2.55,2.55,0,0,1,1.8.75,4.727,4.727,0,0,0,1.575-.6A2.423,2.423,0,0,1,16.575,8.7,6.138,6.138,0,0,0,18,8.325,5,5,0,0,1,16.763,9.6Z"/>
  </g>
</svg>
