<svg xmlns="http://www.w3.org/2000/svg" xmlns:xlink="http://www.w3.org/1999/xlink" version="1.1" xml:space="preserve" width="22" height="22"><rect id="backgroundrect" width="100%" height="100%" x="0" y="0" fill="none" stroke="none"/>
<style type="text/css">
	.st0{fill:white}
</style>

<g class="currentLayer"><title>Layer 1</title><g id="svg_1" class="">
	<path class="st0 st1" d="M0,0.9c0,0.5,0.4,0.9,0.9,0.9h1.7c0.1,0,0.2,0.1,0.2,0.1l2.7,12.7c0.2,0.8,1.1,1.6,2,1.6h12.7   c0.5,0,0.9-0.4,0.9-0.8c0-0.6-0.4-0.9-0.9-0.9H7.5c-0.1,0-0.2-0.1-0.2-0.2L7,12.7l11.8-1.1c1-0.1,1.7-0.8,1.9-1.7l0.9-5.5   c0.1-0.5-0.1-1-0.4-1.4C21,2.7,20.5,2.5,20,2.5H4.9L4.7,1.6C4.5,0.7,3.6,0,2.7,0L0.9,0C0.4,0,0,0.5,0,0.9z M5.3,4.3h14.5l-0.9,5.3   c0,0-0.2,0.2-0.3,0.2l-12,1.1L5.3,4.3z" id="svg_2"/>
	<path class="st0 st2" d="M6,19.6C6,20.9,7.1,22,8.5,22s2.5-1.1,2.5-2.4c0-1.4-1.1-2.4-2.5-2.4S6,18.3,6,19.6z M7.9,19.5   c0-0.4,0.3-0.5,0.6-0.5c0.4,0,0.6,0.3,0.6,0.6c0,0.4-0.3,0.5-0.6,0.5C8.2,20.2,7.9,19.9,7.9,19.5z" id="svg_3"/>
	<path class="st0 st3" d="M16.4,19.6c0,1.3,1.1,2.4,2.5,2.4s2.5-1.1,2.5-2.4c0-1.4-1.1-2.4-2.5-2.4S16.4,18.3,16.4,19.6z M18.2,19.5   c0-0.4,0.4-0.5,0.6-0.5c0.4,0,0.6,0.3,0.6,0.6c0,0.4-0.3,0.5-0.6,0.5C18.5,20.2,18.2,19.9,18.2,19.5z" id="svg_4"/>
</g><path fill="" fill-opacity="1" stroke="none" stroke-opacity="1" stroke-width="1" stroke-dasharray="none" stroke-linejoin="miter" stroke-linecap="butt" stroke-dashoffset="" fill-rule="nonzero" opacity="1" marker-start="" marker-mid="" marker-end="" id="svg_5" d="M5.644768470798944,4.823529734593553 " style="color: rgb(0, 0, 0);"/><path fill="" fill-opacity="1" stroke="none" stroke-opacity="1" stroke-width="1" stroke-dasharray="none" stroke-linejoin="miter" stroke-linecap="butt" stroke-dashoffset="" fill-rule="nonzero" opacity="1" marker-start="" marker-mid="" marker-end="" id="svg_6" d="M5.8968693227681825,7.008403784993632 " style="color: rgb(0, 0, 0);"/><path fill="" fill-opacity="1" stroke="none" stroke-opacity="1" stroke-width="1" stroke-dasharray="none" stroke-linejoin="miter" stroke-linecap="butt" stroke-dashoffset="" fill-rule="nonzero" opacity="1" marker-start="" marker-mid="" marker-end="" id="svg_7" d="M 5.3086340015066185 4.655462499947394 L 6.470588235294118 10.756302521008402 L 18.403361344537814 9.747899159663865 L 19.747899159663866 4.285714285714286" style="color: rgb(0, 0, 0);"/></g></svg>