<?xml version="1.0" encoding="utf-8"?>
<!-- Generator: Adobe Illustrator 21.0.0, SVG Export Plug-In . SVG Version: 6.00 Build 0)  -->
<svg version="1.1" id="Layer_1" xmlns="http://www.w3.org/2000/svg" xmlns:xlink="http://www.w3.org/1999/xlink" x="0px" y="0px"
	 viewBox="0 0 22 20" style="enable-background:new 0 0 22 20;" xml:space="preserve">
<path d="M15.9,0c-1.2,0-2.4,0.5-3.4,1.2c-0.6,0.5-1.1,1-1.5,1.6c-0.4-0.6-0.9-1.2-1.5-1.6C8.5,0.5,7.3,0,6.1,0C2.7,0,0,2.8,0,6.2
	c0,2,0.6,3.9,1.7,5.5c1,1.6,2.3,3.1,3.7,4.3c1.6,1.5,3.4,2.8,5.3,3.9c0.1,0,0.2,0.1,0.3,0.1c0.1,0,0.2,0,0.3-0.1
	c1.9-1.1,3.7-2.4,5.3-3.9c1.4-1.3,2.7-2.7,3.7-4.3c1.1-1.6,1.7-3.5,1.7-5.5C22,2.8,19.3,0,15.9,0z"/>
</svg>
