<?xml version="1.0" encoding="utf-8"?>
<!-- Generator: Adobe Illustrator 21.0.0, SVG Export Plug-In . SVG Version: 6.00 Build 0)  -->
<svg version="1.1" xmlns="http://www.w3.org/2000/svg" xmlns:xlink="http://www.w3.org/1999/xlink" x="0px" y="0px"
	 viewBox="0 0 22 20" style="enable-background:new 0 0 22 20;" xml:space="preserve">
<style type="text/css">
	.st0{fill:#FF6060;}
	.st1{fill:#FFFFFF;}
</style>
<g id="Layer_2">
	<path class="st0" d="M7.3,0.9L11,3.8l2.8-2.6c0,0,2.3-0.3,2.3-0.3s2.7,1.5,2.7,1.5L20.5,3l0.7,4.7l-0.9,2.5L18,13.5
		c0,0-2.3,2.9-2.7,3.2s-3.6,1.9-3.7,1.9s-1.2,0.2-1.2,0.2l-7.3-5.9c0,0-1.8-3.7-1.8-3.8S0.6,5.7,0.6,5.7l0.8-2c0,0,1-1.4,1.1-1.5
		s1.1-0.9,1.3-0.9s1.4-0.2,1.5-0.3S7.3,0.9,7.3,0.9z"/>
</g>
<g id="Layer_1">
	<path id="Path_5009" class="st1" d="M15.9,1.7c2.4,0,4.4,2,4.4,4.5c0,0,0,0,0,0c0,1.6-0.6,3.2-1.5,4.6c-1,1.5-2.1,2.8-3.4,4
		c-1.4,1.3-2.9,2.4-4.5,3.4c-1.6-1-3.1-2.1-4.5-3.4c-1.3-1.2-2.4-2.5-3.4-4C2.2,9.4,1.7,7.8,1.6,6.2c0-2.5,2-4.5,4.4-4.5
		c0,0,0,0,0,0C7,1.7,7.8,2,8.5,2.6C9,2.9,9.4,3.3,9.7,3.8L11,5.8l1.4-2.1c0.3-0.5,0.7-0.9,1.1-1.2C14.2,2,15.1,1.7,15.9,1.7 M15.9,0
		c-1.2,0-2.4,0.5-3.4,1.3c-0.6,0.4-1.1,1-1.6,1.6c-0.4-0.6-0.9-1.2-1.6-1.6C8.5,0.5,7.3,0,6.1,0C2.7,0,0,2.7,0,6.1c0,0,0,0,0,0
		c0.1,2,0.6,3.9,1.7,5.5c1,1.6,2.3,3.1,3.7,4.3c1.6,1.5,3.4,2.8,5.3,3.9C10.8,20,10.9,20,11,20l0,0c0.1,0,0.2,0,0.2-0.1
		c1.9-1.1,3.7-2.4,5.3-3.9c1.4-1.3,2.7-2.7,3.7-4.3C21.4,10,22,8.1,22,6.2C22,2.8,19.3,0,15.9,0C15.9,0,15.9,0,15.9,0L15.9,0z"/>
</g>
</svg>
