<?xml version="1.0" encoding="utf-8"?>
<!-- Generator: Adobe Illustrator 21.0.0, SVG Export Plug-In . SVG Version: 6.00 Build 0)  -->
<svg version="1.1" xmlns="http://www.w3.org/2000/svg" xmlns:xlink="http://www.w3.org/1999/xlink" x="0px" y="0px"
	 viewBox="0 0 21.7 22" style="enable-background:new 0 0 21.7 22;" xml:space="preserve">
<style type="text/css">
	.st0{fill:#FFFFFF;}
	.st1{fill:#404040;}
</style>
<g id="Layer_2">
</g>
<g id="Layer_1">
	<g>
		<g>
			<path class="st0" d="M0,0.9c0,0.5,0.4,0.9,0.9,0.9h1.7c0.1,0,0.2,0.1,0.2,0.1l2.7,12.7c0.2,0.8,1.1,1.6,2,1.6h12.7
				c0.5,0,0.9-0.4,0.9-0.8c0-0.6-0.4-0.9-0.9-0.9H7.5c-0.1,0-0.2-0.1-0.2-0.2L7,12.7l11.8-1.1c1-0.1,1.7-0.8,1.9-1.7l0.9-5.5
				c0.1-0.5-0.1-1-0.4-1.4C21,2.7,20.5,2.5,20,2.5H4.9L4.7,1.6C4.5,0.7,3.6,0,2.7,0L0.9,0C0.4,0,0,0.5,0,0.9z M5.3,4.3h14.5
				l-0.9,5.3c0,0-0.2,0.2-0.3,0.2l-12,1.1L5.3,4.3z"/>
			<path class="st0" d="M6,19.6C6,20.9,7.1,22,8.5,22s2.5-1.1,2.5-2.4c0-1.4-1.1-2.4-2.5-2.4S6,18.3,6,19.6z M7.9,19.5
				c0-0.4,0.3-0.5,0.6-0.5c0.4,0,0.6,0.3,0.6,0.6c0,0.4-0.3,0.5-0.6,0.5C8.2,20.2,7.9,19.9,7.9,19.5z"/>
			<path class="st0" d="M16.4,19.6c0,1.3,1.1,2.4,2.5,2.4s2.5-1.1,2.5-2.4c0-1.4-1.1-2.4-2.5-2.4S16.4,18.3,16.4,19.6z M18.2,19.5
				c0-0.4,0.4-0.5,0.6-0.5c0.4,0,0.6,0.3,0.6,0.6c0,0.4-0.3,0.5-0.6,0.5C18.5,20.2,18.2,19.9,18.2,19.5z"/>
		</g>
		<path class="st1" d="M18.6,9.8c0.1,0,0.3-0.2,0.3-0.2l0.9-5.3H5.3l1.4,6.6L18.6,9.8z"/>
	</g>
</g>
</svg>
