<svg xmlns="http://www.w3.org/2000/svg" viewBox="14819.5 2500 61.277 18">
  <g id="EMS-02" transform="translate(14820.5 2500)">
    <path id="Path_3124" data-name="Path 3124" d="M48.444,2.43q-1.475,5.785-2.96,11.561c-.318,1.234-.627,2.468-.955,3.693a.418.418,0,0,1-.3.27c-1.311.019-2.623.01-3.944,0-.019,0-.039-.019-.087-.048.145-.55.289-1.1.415-1.658.058-.241.174-.3.4-.3.906.01,1.8,0,2.71,0,.646,0,.646,0,.733-.762-1.167-.106-2.333,0-3.539-.058.174-.752.328-1.466.521-2.17.019-.067.212-.135.318-.135.916-.01,1.832-.01,2.748-.01.685,0,.7-.019.752-.8H41.732c.135-.559.231-1.032.357-1.5.2-.82.212-.82,1.061-.82h2.42a.6.6,0,0,0,.511-.723c-.039-.077-.212-.116-.328-.116-1.08-.01-2.17-.01-3.288-.01.058-.337.116-.627.174-.926-.029-.01-.048-.019-.077-.029a1.194,1.194,0,0,0-.135.174q-2.039,4.021-4.088,8.051c-.27.521-.521,1.061-.81,1.572a.518.518,0,0,1-.347.241c-.434.029-.868.01-1.34.01,0-.6-.01-1.186.01-1.774,0-.058.154-.164.251-.164.337-.019.675-.01,1.012-.01.5-.01.714-.231.752-.849H36.323c-.482,0-.472,0-.472-.472s.019-.964-.01-1.446c-.019-.347.116-.424.434-.415.781.019,1.562.01,2.353.01.607,0,.733-.106.887-.849H38c-.617,0-1.234.01-1.842-.01-.106,0-.289-.125-.289-.193-.019-.675-.01-1.34-.01-2.054.174-.01.309-.019.453-.019h3.905c.607,0,.752-.125.9-.82-.135-.01-.26-.019-.376-.019-1.5-.01-3.008-.029-4.522-.029-.289,0-.386-.087-.357-.376.019-.231,0-.463,0-.7-.039-.01-.067-.01-.106-.019a2.008,2.008,0,0,0-.116.309c-.82,3.163-1.649,6.325-2.459,9.5-.087.318-.2.434-.55.434-1.263-.029-2.526-.01-3.847-.01.154-.627.3-1.225.472-1.822.019-.077.2-.145.318-.145.81-.01,1.61-.01,2.42-.01.665,0,.694-.019.762-.781H29.487c.212-.829.4-1.591.607-2.382h2.681c.714,0,.714,0,.791-.82H30.316c.164-.627.3-1.157.434-1.687.019-.1.058-.183.067-.28.039-.251.154-.357.434-.347.868.019,1.736.01,2.6.01a.573.573,0,0,0,.511-.714c-.029-.067-.193-.116-.3-.116-.82-.019-1.639-.029-2.459-.039h-.453c.116-.463.212-.887.318-1.311.231-.945.231-.945,1.2-.945h5.419a.44.44,0,0,0,.415-.685.462.462,0,0,0-.337-.116c-1.254-.01-2.507-.01-3.761-.01H31.916c.193-.733.347-1.4.55-2.054.029-.087.251-.164.376-.164,1.562-.01,3.134-.01,4.7-.01h.289a.5.5,0,0,0,.472-.771c-.039-.077-.222-.116-.328-.116-1.6-.01-3.2-.01-4.812-.01h-.434c.193-.762.366-1.456.55-2.15a.238.238,0,0,1,.183-.116c1.832-.01,3.654-.01,5.506-.01.145,2.343.28,4.648.415,6.962a.484.484,0,0,0,.116.019,2.458,2.458,0,0,0,.3-.5c.087-.241.241-.28.472-.28,2,.01,4-.01,6,.01.376,0,.54-.106.6-.472.039-.26-.01-.357-.28-.347-.762.01-1.514.01-2.276,0-1.205-.01-2.411-.01-3.616-.019-.067,0-.145-.01-.27-.019.4-.714.771-1.4,1.167-2.063.048-.077.2-.106.309-.106,1.678-.019,3.346-.029,5.024-.039.665,0,.762-.1.742-.839H42.147c.106-.212.174-.357.251-.492.289-.521.569-1.032.868-1.543a.489.489,0,0,1,.347-.241c1.745-.01,3.491-.01,5.245-.01a.473.473,0,0,1,.1.039C48.781,1.09,48.617,1.765,48.444,2.43Zm12.689.106C60.439,1.851,59.725,1.186,59,.53a.639.639,0,0,0-.415-.145c-1.244-.01-2.478-.01-3.722,0a1.01,1.01,0,0,0-.5.145c-.877.5-1.745,1.022-2.613,1.533-.3.183-.607.357-.906.54.01.029.019.048.029.077h9.517c.01.752-.067.82-.752.829-2.787.01-5.564.019-8.35.039-.974.01-.742-.145-1.012.771-.135.463-.241.935-.376,1.466h3.809c.019.694-.077.8-.685.8-1.012,0-2.025,0-3.037.01-.106,0-.3.058-.318.135-.193.685-.366,1.379-.559,2.121H49.6l8.64.029a1.793,1.793,0,0,1,.4.01.282.282,0,0,1,.174.174.558.558,0,0,1-.627.656H49.437c.453.463.868.839,1.234,1.263a.871.871,0,0,0,.752.309c.887-.019,1.784-.01,2.671,0,.174,0,.347.029.54.048-.039.241-.067.424-.106.656h.415c.916.01,1.832.019,2.748.039.116,0,.289.048.328.135.106.251-.212.675-.492.675H54.885c-.588,0-.579,0-.752.579-.039.125-.164.309-.26.318-.424.039-.849.019-1.321.019.077-.357.135-.607.2-.906h-.424c-1.167,0-2.333-.01-3.51,0-.858.01-.665-.116-.877.656-.154.54-.289,1.08-.444,1.7h9.691c.029.694-.048.781-.656.781H47.393c.868.656,1.687,1.273,2.507,1.88a.867.867,0,0,0,.472.125c1.215.01,2.43.01,3.654,0a1.408,1.408,0,0,0,.646-.174c1.022-.569,2.035-1.147,3.037-1.745a.735.735,0,0,0,.309-.4c.55-2.1,1.08-4.214,1.61-6.325a.4.4,0,0,0-.087-.337c-.6-.569-1.215-1.138-1.832-1.687a.844.844,0,0,0-.472-.183c-.858-.019-1.707-.029-2.565-.019-.289,0-.4-.077-.328-.376.164-.607.3-1.215.482-1.813a.424.424,0,0,1,.318-.231c.3-.029.6,0,.906-.01.28-.01.376.087.289.366-.067.222-.116.453-.174.7,1.437,0,2.825,0,4.2-.01.087,0,.222-.135.251-.222.231-.858.453-1.726.656-2.584A.76.76,0,0,0,61.133,2.536ZM28.484,7.106c-1.1,0-2.189-.01-3.288,0-.3,0-.424-.048-.318-.4.164-.53.309-1.061.424-1.6a.515.515,0,0,1,.617-.472c1.061.029,2.121.01,3.182.029.3,0,.492-.039.559-.4.1-.521.26-1.022.4-1.533q.3-1.157.607-2.343H21.541c-.193.742-.386,1.466-.588,2.256h4.975c.955,0,1.9,0,2.854.01.106,0,.27.048.289.116a.6.6,0,0,1-.54.733H26.15c-1.7,0-3.394,0-5.1.01-.125,0-.337.058-.357.135-.193.675-.357,1.369-.521,2.035.048.039.067.067.087.067.636.019,1.273.029,1.909.039.53.01,1.061-.01,1.591.01.1,0,.26.106.27.183a.491.491,0,0,1-.55.6c-1.08,0-2.17,0-3.249.01-.106,0-.289.067-.309.135-.2.685-.366,1.379-.569,2.15h8.109c.019.723-.077.839-.694.839H20.114c-.964,0-.964,0-1.215.916-.116.434-.222.868-.357,1.4h3.905c-.106.8-.106.8-.781.8-1.012,0-2.025.01-3.037-.01a.348.348,0,0,0-.4.3c-.106.472-.231.935-.347,1.4-.048.193-.087.386-.154.665h8.129c-.067.771-.106.8-.771.81q-3.616,0-7.232.01c-.125,0-.347.067-.376.154-.183.579-.318,1.176-.482,1.784.087.01.135.019.183.019q4.339,0,8.678.01c.231,0,.28-.106.328-.289.251-1,.521-2.006.771-3.008.077-.3.145-.6.222-.945h-.444c-1.1,0-2.189-.01-3.288,0-.318,0-.376-.106-.289-.4.154-.559.3-1.109.434-1.678a.466.466,0,0,1,.55-.415c1.119.019,2.237,0,3.365.01.231,0,.347-.067.4-.3.2-.82.424-1.63.627-2.44.116-.463.222-.926.347-1.437A2.054,2.054,0,0,1,28.484,7.106ZM12,14.078h3.24l.492-1.832H10.443ZM5.429,6.364,6.991,8.2h9.816L17.3,6.364ZM9.286,10.9h6.8l.357-1.35h-8.3Zm5.178,6.075.415-1.543H13.152ZM18.976,0H0L1.639,1.919V1.832H18.494Zm-.849,3.182H2.71L4.272,5.014H17.646Z" transform="translate(-1)"/>
  </g>
</svg>
