<svg xmlns="http://www.w3.org/2000/svg" viewBox="14785.75 2526.5 50.313 15.75">
  <style>
    .cls-1 {
    fill: #999999;
    }
  </style>
  <g id="Group_2419" data-name="Group 2419" transform="translate(14785.75 2526.5)">
    <path class="cls-1" id="Path_1661" data-name="Path 1661" d="M40.4,35.887h4L46.9,20.2h-4Z" transform="translate(-22.338 -20.2)"/>
    <path class="cls-1"  id="Path_1662" data-name="Path 1662" d="M26.188,20.2h0L22.25,30.825l-.437-2v.062l-1.375-6.625a2.631,2.631,0,0,0-2.625-2h-6.25l-.063.313a16.118,16.118,0,0,1,4.75,2.062L19.812,35.95h4.25l6.313-15.687H26.188Zm-11.5.687h3.188a1.892,1.892,0,0,1,1.938,1.5l.562,2.813A16.952,16.952,0,0,0,14.687,20.888Z" transform="translate(-11.5 -20.2)"/>
    <path class="cls-1"  id="Path_1663" data-name="Path 1663" d="M58.925,26.612c-1.437-.687-2.25-1.187-2.25-1.875,0-.625.75-1.312,2.313-1.312a6.574,6.574,0,0,1,3,.563l.375.188.563-3.25A10.242,10.242,0,0,0,59.3,20.3c-4,0-6.75,2.062-6.813,5-.062,2.187,2,3.375,3.5,4.125,1.563.75,2.063,1.25,2.063,1.875,0,1-1.25,1.5-2.437,1.5a7.9,7.9,0,0,1-3.75-.813l-.5-.25L50.8,35.112a11.811,11.811,0,0,0,4.5.813c4.25,0,7-2.062,7-5.187C62.362,28.987,61.3,27.675,58.925,26.612Z" transform="translate(-26.238 -20.237)"/>
    <path class="cls-1"  id="Path_1664" data-name="Path 1664" d="M79.95,20.2H76.825A2.025,2.025,0,0,0,74.7,21.45l-6,14.375h4.25L74.138,32.7h4.75l.625,3.125h3.75Zm-4.625,9.438c.063,0,1.625-5.063,1.625-5.063l1.25,5.063Z" transform="translate(-32.95 -20.2)"/>
  </g>
</svg>
