<svg xmlns="http://www.w3.org/2000/svg" viewBox="14770.313 2477.125 39.688 23.75">
  <style>
    path {fill: #999999;}
  </style>
  <g id="Group_2420" data-name="Group 2420" transform="translate(14770.313 2477.125)">
    <path id="Path_1667" data-name="Path 1667" d="M79.088,33.425c.688,0,1-.875,1-1.562,0-.75-.25-1.062-.687-1.062-.562,0-1,.625-1,1.625C78.4,33.05,78.65,33.425,79.088,33.425Z" transform="translate(-43.65 -19.675)"/>
    <path id="Path_1668" data-name="Path 1668" d="M35.4,34.084a.488.488,0,0,0,.5.5c.75,0,.938-1,.875-1.187h-.25C35.588,33.334,35.4,33.771,35.4,34.084Z" transform="translate(-27.525 -20.646)"/>
    <path id="Path_1669" data-name="Path 1669" d="M52.013,30.6c-.688,0-.813.813-.813.875h1.375C52.575,31.413,52.7,30.6,52.013,30.6Z" transform="translate(-33.45 -19.6)"/>
    <path id="Path_1670" data-name="Path 1670" d="M42.612,16.063A11.95,11.95,0,0,0,34.675,13h-.063a11.875,11.875,0,1,0,8,20.687,11.689,11.689,0,0,0,8,3.063,11.825,11.825,0,0,0,10.312-6h0a11.789,11.789,0,0,0,1.563-5.875h0a11.9,11.9,0,0,0-19.875-8.812Zm-1.125,1.25h2.25c.313.375.625.812.938,1.25h-4C40.925,18.125,41.237,17.688,41.487,17.313Zm-1.5,2.5h5.438a10.42,10.42,0,0,1,.5,1.25H39.3C39.363,20.937,39.613,20.437,39.988,19.812ZM27.612,27.875l.75-4.562-1.687,4.562H25.8l-.125-4.562-.75,4.562h-1.25l1-6H26.55l.063,3.688,1.25-3.687h2l-1,6Zm4.313,0,.062-.5a1.566,1.566,0,0,1-1.312.563,1.234,1.234,0,0,1-1.25-1.375c0-1.437,1.125-1.875,2.25-1.875h.563s.062-.062.062-.312c0-.375-.375-.437-.812-.437a3.694,3.694,0,0,0-1.375.25l.188-1.062a4.9,4.9,0,0,1,1.5-.25,1.512,1.512,0,0,1,1.75,1.5l-.5,3.5Zm4.687-1.5c0,1.688-1.625,1.625-1.937,1.625a5.891,5.891,0,0,1-1.438-.125l.188-1.125a4.087,4.087,0,0,0,1.125.188c.312,0,.813-.062.813-.437,0-.625-1.562-.438-1.562-1.937,0-1.25.937-1.625,1.875-1.625a4.748,4.748,0,0,1,1.188.125l-.188,1.062s-.687-.063-.875-.063c-.437,0-.687.125-.687.438C35.112,25.125,36.613,24.812,36.613,26.375Zm1.937.438a2.707,2.707,0,0,0,.313-.062l-.188,1.063a2.379,2.379,0,0,1-.937.188.938.938,0,0,1-1-1.062c0-.5.688-4.625.75-4.687h1.25l-.063.75H39.3l-.187,1.187h-.688l-.375,2.188C38.113,26.562,38.113,26.812,38.55,26.812Zm.625-1c0-1.562.938-2.937,2.188-2.937a1.711,1.711,0,0,1,1.813,1.875,8.1,8.1,0,0,1-.188,1.125H40.425s-.25,1,1.125,1a3.747,3.747,0,0,0,1.313-.312l-.25,1.188a3.636,3.636,0,0,1-1.312.187A1.868,1.868,0,0,1,39.175,25.812Zm3.438,7.812h0a7.879,7.879,0,0,1-1.25-1.25H43.8A7.436,7.436,0,0,1,42.612,33.625Zm2.125-2.437H40.55a12.4,12.4,0,0,1-.687-1.25h5.625A8.276,8.276,0,0,0,44.738,31.187Zm-.312-3.25H43.113l.813-4.875h1.187l-.125.688s.438-.75,1-.75h.25a4.48,4.48,0,0,0-.5,1.438C44.862,24.125,44.8,25.812,44.425,27.937Zm4.938-.125A5.559,5.559,0,0,1,48.238,28c-1.5,0-2.25-1.062-2.25-2.625,0-2.375,1.438-3.625,2.875-3.625a4.394,4.394,0,0,1,1.437.313l-.187,1.313A2.161,2.161,0,0,0,48.925,23c-.875,0-1.625.813-1.625,2.312,0,.75.375,1.438,1.25,1.438a3.072,3.072,0,0,0,1.063-.312Zm9-4.875a1.738,1.738,0,0,1,1.25.688l.25-1.687h1.25l-.938,6h-1.25l.063-.437A1.668,1.668,0,0,1,57.8,28c-1.062,0-1.562-1-1.562-2.062C56.238,24.312,57.175,22.937,58.363,22.937ZM55.675,23l-.125.688s.437-.75,1-.75h.25a4.48,4.48,0,0,0-.5,1.437c-.875-.312-.938,1.375-1.313,3.5H53.675L54.488,23Zm-4.938.188a5.061,5.061,0,0,1,1.562-.25,1.512,1.512,0,0,1,1.75,1.5l-.5,3.438H52.425l.063-.5a1.566,1.566,0,0,1-1.312.563,1.234,1.234,0,0,1-1.25-1.375c0-1.437,1.125-1.875,2.25-1.875h.563s.063-.062.063-.312c0-.375-.375-.437-.813-.437a3.694,3.694,0,0,0-1.375.25Z" transform="translate(-22.8 -13)"/>
    <path id="Path_1671" data-name="Path 1671" d="M68.2,34.084a.488.488,0,0,0,.5.5c.75,0,.938-1,.875-1.187h-.25C68.387,33.334,68.2,33.771,68.2,34.084Z" transform="translate(-39.825 -20.646)"/>
  </g>
</svg>
