<svg xmlns="http://www.w3.org/2000/svg" viewBox="14790.75 2569.25 41.331 27.5">
  <style>
    path {
      fill: #999999
    }
  </style>
  <g id="raschet-02" transform="translate(14790.75 2569.25)">
    <g id="Group_5674" data-name="Group 5674">
      <path id="Path_3104" data-name="Path 3104" d="M6.118,418.624a2.376,2.376,0,0,0-2.309.61,2.657,2.657,0,0,0-.227.266.232.232,0,0,1-.048-.044c.022-.27.044-.54.065-.819H1.673Q.83,423.239,0,427.8H2.222c.174-.9.349-1.8.523-2.7a3.294,3.294,0,0,0,3.264-.453,4.493,4.493,0,0,0,1.551-4.423A1.952,1.952,0,0,0,6.118,418.624Zm-1.56,4.658a.968.968,0,0,1-1.325.188.317.317,0,0,1-.118-.227c.1-.588.2-1.185.349-1.76a2.181,2.181,0,0,1,.388-.719.879.879,0,0,1,.994-.358c.4.162.44.519.458.9A3.157,3.157,0,0,1,4.558,423.282Z" transform="translate(0 -400.301)"/>
      <path id="Path_3105" data-name="Path 3105" d="M191.216,419.014a.489.489,0,0,0-.1-.039,7.331,7.331,0,0,0-3.46-.179,4.271,4.271,0,0,0-3.351,5,1.872,1.872,0,0,0,1.408,1.6,2.251,2.251,0,0,0,2.457-.984l.144-.2c.013.009.026.013.039.022-.018.358-.035.715-.057,1.072h2.048a36.866,36.866,0,0,1,.9-6.266C191.238,419.032,191.23,419.019,191.216,419.014Zm-3,3.673a2.157,2.157,0,0,1-.405.684.679.679,0,0,1-.758.253.66.66,0,0,1-.444-.64,2.689,2.689,0,0,1,.932-2.327,1.236,1.236,0,0,1,1.238-.239C188.589,421.193,188.428,421.947,188.219,422.687Z" transform="translate(-176.214 -400.421)"/>
      <path id="Path_3106" data-name="Path 3106" d="M640.4,418.663a3.737,3.737,0,0,0-4.131,1.133,4.165,4.165,0,0,0-.911,3.046,2.337,2.337,0,0,0,1.882,2.266,6.605,6.605,0,0,0,1.551.109,4.862,4.862,0,0,0,1.9-.427.246.246,0,0,0,.135-.175c-.022-.493-.062-.98-.1-1.446-.48.109-.924.239-1.381.3a2.343,2.343,0,0,1-1.487-.192.761.761,0,0,1-.4-.575c.444,0,.863.017,1.281,0a4.618,4.618,0,0,0,1.8-.427,1.99,1.99,0,0,0-.148-3.608Zm-1.116,2.222a3.517,3.517,0,0,1-.662.17c-.3.04-.6.04-.924.057a1.234,1.234,0,0,1,1.517-1.007.4.4,0,0,1,.322.367A.376.376,0,0,1,639.287,420.885Z" transform="translate(-607.661 -400.2)"/>
      <path id="Path_3107" data-name="Path 3107" d="M485.269,421.713c-.052,0-.135.114-.148.183-.135.688-.288,1.377-.38,2.07a.553.553,0,0,1-.492.51,1.917,1.917,0,0,1-.279.043.662.662,0,0,1-.793-.788c.04-.31.1-.615.162-.92.07-.361.139-.719.218-1.107-.737,0-1.442,0-2.144.009-.043,0-.113.1-.131.157a7.6,7.6,0,0,0-.161.763,17.653,17.653,0,0,0-.266,1.908,1.377,1.377,0,0,0,.849,1.356,3.153,3.153,0,0,0,1.791.2,7.339,7.339,0,0,0,.894-.205c-.161.771-.327,1.543-.492,2.327.728,0,1.438,0,2.148-.009.048,0,.126-.1.14-.166q.523-2.693,1.037-5.394c.06-.309.113-.619.174-.95C486.66,421.7,485.963,421.7,485.269,421.713Z" transform="translate(-459.901 -403.325)"/>
      <path id="Path_3108" data-name="Path 3108" d="M351.629,418.687a3.958,3.958,0,0,0-3.43,4.044,2.515,2.515,0,0,0,1.743,2.51,4.038,4.038,0,0,0,1.808.122c.375-.048.745-.153,1.133-.24v-1.638a.269.269,0,0,0-.017-.07c-.3.061-.584.135-.876.178a1.121,1.121,0,0,1-1.39-.862,1.964,1.964,0,0,1,2.227-2.34c.17.018.336.057.51.087.175-.562.344-1.116.518-1.682-.087-.031-.152-.057-.222-.074A5.093,5.093,0,0,0,351.629,418.687Z" transform="translate(-333.027 -400.365)"/>
      <path id="Path_3109" data-name="Path 3109" d="M784.1,422.443h1.674c-.309,1.647-.618,3.263-.928,4.907H787.1c.309-1.643.619-3.273.933-4.919h1.935c.114-.554.217-1.085.327-1.63h-5.874C784.323,421.336,784.213,421.876,784.1,422.443Z" transform="translate(-749.933 -402.464)"/>
      <path id="Path_3110" data-name="Path 3110" d="M74.187,12.833c0-.157.009-.318.009-.479a12.353,12.353,0,0,0-24.707,0c0,.161,0,.322.009.479H45.023L44.5,16.1h6.719a11.264,11.264,0,1,1,21.247,0H83.238l.654-3.268Z" transform="translate(-42.561)"/>
      <path id="Path_3111" data-name="Path 3111" d="M591.6,183.033a7.078,7.078,0,0,1,.528.963l1.294-1.12.035.052a9.975,9.975,0,0,0-.5-1.129Z" transform="translate(-565.821 -173.878)"/>
      <path id="Path_3112" data-name="Path 3112" d="M466.861,70.545A8.8,8.8,0,0,0,465.049,70c-.113.706-.27,1.678-.449,2.789a7.367,7.367,0,0,1,1.647.327Z" transform="translate(-444.355 -66.95)"/>
      <path id="Path_3113" data-name="Path 3113" d="M518.5,97.67v0a7.006,7.006,0,0,1,1.451.854l1.033-2.035.009,0a9.449,9.449,0,0,0-1.469-1.089Z" transform="translate(-495.906 -91.243)"/>
      <path id="Path_3114" data-name="Path 3114" d="M561,137.5a7.759,7.759,0,0,1,.889.924l1.264-1.5.018,0a9.491,9.491,0,0,0-.863-1.116Z" transform="translate(-536.555 -129.883)"/>
      <path id="Path_3115" data-name="Path 3115" d="M609.6,225.393a7.588,7.588,0,0,1,.239.885l.187-.131,1.1-.78a9.009,9.009,0,0,0-.222-.967Z" transform="translate(-583.037 -214.622)"/>
      <path id="Path_3116" data-name="Path 3116" d="M618.742,269.758c0-.288-.009-.575-.03-.858l-1.312.571a7.564,7.564,0,0,1,.048.828v.109Z" transform="translate(-590.497 -257.183)"/>
      <path id="Path_3117" data-name="Path 3117" d="M518.9,252.6l-.7.636a3.71,3.71,0,0,1,.27.5l.67-.58.018.026A4.868,4.868,0,0,0,518.9,252.6Z" transform="translate(-495.62 -241.593)"/>
      <path id="Path_3118" data-name="Path 3118" d="M452.5,196.338a3.645,3.645,0,0,1,.85.17l.318-1.329a4.229,4.229,0,0,0-.937-.279C452.67,195.262,452.592,195.763,452.5,196.338Z" transform="translate(-432.783 -186.407)"/>
      <path id="Path_3119" data-name="Path 3119" d="M481.585,208.466l0,0a4.758,4.758,0,0,0-.759-.562l-.532,1.177v0a3.825,3.825,0,0,1,.754.44Z" transform="translate(-459.371 -198.841)"/>
      <path id="Path_3120" data-name="Path 3120" d="M502.3,229.68a3.708,3.708,0,0,1,.461.479l.654-.775.009,0a4.717,4.717,0,0,0-.449-.579Z" transform="translate(-480.412 -218.83)"/>
      <path id="Path_3121" data-name="Path 3121" d="M527.817,275.506l.572-.405c-.031-.17-.071-.336-.114-.5l-.676.514a3.287,3.287,0,0,1,.122.457Z" transform="translate(-504.61 -262.635)"/>
      <path id="Path_3122" data-name="Path 3122" d="M532.2,298.144c0-.148,0-.3-.018-.444l-.68.3a3.413,3.413,0,0,1,.026.427v.057Z" transform="translate(-508.34 -284.728)"/>
      <path id="Path_3123" data-name="Path 3123" d="M232.155,79.825l2.052-13.146a8.818,8.818,0,0,0-1.482-.035A9.445,9.445,0,0,0,224.1,76.828a9.976,9.976,0,0,0,.645,3Zm.017-10.436c.057.444.117.941.183,1.455a7.276,7.276,0,0,0-1.163.266c-.109-.549-.214-1.068-.305-1.508A6.949,6.949,0,0,1,232.172,69.389Zm-2.519.667.562,1.429a8.761,8.761,0,0,0-.8.431l-.653-1.355A7.447,7.447,0,0,1,229.654,70.056Zm-1.878,1.307c.257.335.549.719.85,1.115-.183.148-.362.3-.532.471-.335-.34-.653-.654-.924-.924A7.271,7.271,0,0,1,227.776,71.363Zm-1.342,1.791.919.627c-.1.126-.192.262-.283.392l-.876-.527C226.268,73.481,226.347,73.315,226.434,73.154Zm-.684,1.952.671.244c-.057.126-.109.253-.157.383-.209-.061-.4-.122-.584-.174C225.7,75.4,225.719,75.254,225.75,75.106Z" transform="translate(-214.316 -63.725)"/>
    </g>
  </g>
</svg>
