<svg xmlns="http://www.w3.org/2000/svg" viewBox="14897.296 2540.27 92.085 17.531">
  <path id="Yandex_Money_rgb_ru-01" d="M4.435,9.27,1.871,15.029H0L2.817,8.87C1.492,8.2.609,6.979.609,4.729.609,1.576,2.606,0,4.982,0H7.4V15.029H5.78V9.27Zm1.345-7.9H4.919c-1.3,0-2.564.862-2.564,3.363,0,2.417,1.156,3.2,2.564,3.2H5.78ZM15.2,4.435V15.029H13.581v-4.75H11.143v4.75H9.5V4.435h1.64v4.5h2.438v-4.5ZM23.628,17.11H22.157V15.029h-4.54V17.11H16.145V13.684H16.8c.967-2.249,1.072-5.528,1.072-8.345v-.9h4.919v9.249h.841V17.11ZM21.169,5.759H19.34v.189a23.378,23.378,0,0,1-.988,7.735h2.816V5.759Zm6.979,9.417c-2.186,0-3.531-1.744-3.531-5,0-3.406.946-5.886,3.2-5.886,1.766,0,2.922,1.324,2.922,4.918v.9H26.319c0,2.4.673,3.658,1.976,3.658a3.675,3.675,0,0,0,2.081-.714l.379,1.26A4.17,4.17,0,0,1,28.147,15.176ZM26.34,8.765h2.712c0-1.808-.294-3.132-1.24-3.132C26.8,5.633,26.445,6.873,26.34,8.765Zm7.714.988v5.276h-1.64V4.435h1.64v4.9l2.543-4.9h1.661L35.631,9.417l3.006,5.612H36.849Zm4.792-.021c0-3.321,1.282-5.444,3.763-5.444a3.336,3.336,0,0,1,1.955.546L44.333,6.39a2.8,2.8,0,0,0-1.745-.736c-1.177,0-2.018,1.324-2.018,3.994,0,2.648.631,4.162,1.955,4.162a2.678,2.678,0,0,0,1.787-.652l.378,1.219a3.208,3.208,0,0,1-2.207.8C40.212,15.176,38.846,13.348,38.846,9.732Zm16.993,5.3H49.407l-.147,2.5h-.82V14.168h.441c.736-.61,1.093-2.292,1.3-4.435.21-2.228.273-5.549.337-9.732h5.255V14.168h1.03V17.53h-.82ZM54.725.862H51.467c-.063,3.8-.168,6.705-.336,8.87-.189,2.249-.526,3.741-1.093,4.435h4.687V.862Zm6.434,13.516A2.7,2.7,0,0,0,63.3,13.243l.315.8a3.06,3.06,0,0,1-2.48,1.2c-2.249,0-3.279-2.039-3.279-5.507s1.3-5.507,3.09-5.507c1.828,0,3.005,1.913,2.669,5.676H58.826C58.868,12.8,59.624,14.377,61.159,14.377ZM58.847,9.122h3.847c.168-2.816-.673-4.077-1.745-4.077C59.835,5.045,58.931,6.474,58.847,9.122Zm11.247.8H66.478v5.108h-.988V4.435h.988V9.122h3.615V4.435h.988V15.029h-.988Zm3.323-5.486H74.4V8.366h.779a3,3,0,0,1,3.321,3.3,3.089,3.089,0,0,1-3.384,3.363h-1.7ZM74.4,9.143v5.108h.631a2.26,2.26,0,0,0,2.5-2.564c0-1.786-.883-2.543-2.4-2.543H74.4Zm6.77-3.888v9.774h-.966V4.435h4.477v.82h-3.51Zm9.965,2.4A14.4,14.4,0,0,1,91.223,6.2H91.16a9.393,9.393,0,0,1-.567,1.366l-3.447,7.462H86.3V4.435h.925v7.357c0,.567-.043,1.03-.084,1.492h.063a11.542,11.542,0,0,1,.567-1.408l3.448-7.441h.861V15.029h-.946Z" transform="translate(14897.296 2540.27)"/>
</svg>
