<?xml version="1.0" encoding="utf-8"?>
<!-- Generator: Adobe Illustrator 21.0.0, SVG Export Plug-In . SVG Version: 6.00 Build 0)  -->
<svg version="1.1" id="Layer_1" xmlns="http://www.w3.org/2000/svg" xmlns:xlink="http://www.w3.org/1999/xlink" x="0px" y="0px"
	 viewBox="0 0 24 24" style="enable-background:new 0 0 24 24;" xml:space="preserve">
<g id="_-03" transform="translate(13954 7662)">
	<path id="Path_2860" d="M-13941.9-7652.5c-0.6,0-1.2,0.4-1.4,1c-0.4,0.7-0.6,1.5-0.6,2.3c0,0.5,0.1,1,0.4,1.4
		c0.2,0.3,0.6,0.5,1,0.5c0.6,0,1.2-0.4,1.4-1c0.4-0.8,0.5-1.7,0.5-2.6c0-0.4-0.1-0.9-0.4-1.2
		C-13941.2-7652.4-13941.6-7652.6-13941.9-7652.5z"/>
	<path id="Path_2861" d="M-13942-7662c-6.6,0-12,5.4-12,12s5.4,12,12,12s12-5.4,12-12C-13930-7656.6-13935.4-7662-13942-7662z
		 M-13935.2-7647.1c-0.8,1-2,1.5-3.2,1.6c-0.6,0-1.1-0.1-1.6-0.5c-0.4-0.3-0.6-0.8-0.6-1.3l0,0c-0.3,1.1-1.3,1.8-2.4,1.8
		c-0.8,0-1.6-0.4-2.2-1c-0.6-0.7-0.9-1.7-0.8-2.6c0-1.3,0.3-2.6,1.1-3.6c0.6-0.9,1.7-1.4,2.8-1.4c0.8-0.1,1.5,0.3,1.8,1.1l0,0l0.1-1
		h2.2c-0.2,2.8-0.5,4.6-0.5,5.4c0,1,0.2,1.3,0.7,1.3c0.5,0,1-0.4,1.3-1.1c0.3-0.8,0.5-1.7,0.5-2.6c0.1-1.4-0.5-2.7-1.4-3.7
		c-1.1-1-2.5-1.5-4-1.4c-1.7-0.1-3.4,0.6-4.6,1.9c-1.2,1.3-1.8,2.9-1.8,4.7c-0.1,1.6,0.5,3.1,1.6,4.2c1.2,1.1,2.8,1.7,4.4,1.6
		c1.4,0,2.7-0.3,4-0.8v1.9c-1.3,0.5-2.8,0.8-4.2,0.7c-2.1,0.1-4.2-0.6-5.8-2c-1.5-1.4-2.3-3.4-2.3-5.5c-0.1-2.2,0.8-4.3,2.4-5.9
		c1.6-1.6,3.8-2.5,6.1-2.4c2-0.1,4,0.6,5.6,1.8c1.4,1.2,2.2,3,2.2,4.9C-13933.8-7649.7-13934.3-7648.3-13935.2-7647.1z"/>
</g>
</svg>
