<?xml version="1.0" encoding="utf-8"?>
<!-- Generator: Adobe Illustrator 21.0.0, SVG Export Plug-In . SVG Version: 6.00 Build 0)  -->
<svg version="1.1" id="Layer_1" xmlns="http://www.w3.org/2000/svg" xmlns:xlink="http://www.w3.org/1999/xlink" x="0px" y="0px"
	 viewBox="0 0 24 24" style="enable-background:new 0 0 24 24;" xml:space="preserve">
<g id="insta" transform="translate(13989 7797)">
	<path id="Path_2854" d="M-13977-7787.5c1.4,0,2.5,1.1,2.5,2.5s-1.1,2.5-2.5,2.5s-2.5-1.1-2.5-2.5S-13978.4-7787.5-13977-7787.5
		C-13977-7787.5-13977-7787.5-13977-7787.5z"/>
	<path id="Path_2855" d="M-13971.2-7789.4c-0.3-0.7-0.8-1.2-1.4-1.4c-0.4-0.2-0.9-0.3-1.4-0.3c-0.8,0-1,0-3,0c-2,0-2.3,0-3,0
		c-0.5,0-0.9,0.1-1.4,0.3c-0.7,0.3-1.2,0.8-1.4,1.4c-0.2,0.4-0.3,0.9-0.3,1.4c0,0.8,0,1,0,3c0,2,0,2.3,0,3c0,0.5,0.1,0.9,0.3,1.4
		c0.3,0.7,0.8,1.2,1.4,1.4c0.4,0.2,0.9,0.3,1.4,0.3c0.8,0,1,0,3,0c2,0,2.3,0,3,0c0.5,0,0.9-0.1,1.4-0.3c0.7-0.3,1.2-0.8,1.4-1.4
		c0.2-0.4,0.3-0.9,0.3-1.4c0-0.8,0-1,0-3c0-2,0-2.3,0-3C-13970.9-7788.5-13971-7789-13971.2-7789.4z M-13977-7781.1
		c-2.1,0-3.9-1.7-3.9-3.9c0-2.1,1.7-3.9,3.9-3.9c2.1,0,3.9,1.7,3.9,3.9c0,0,0,0,0,0C-13973.1-7782.9-13974.9-7781.1-13977-7781.1
		C-13977-7781.1-13977-7781.1-13977-7781.1z M-13973-7788.1c-0.5,0-0.9-0.4-0.9-0.9s0.4-0.9,0.9-0.9s0.9,0.4,0.9,0.9l0,0
		C-13972.1-7788.5-13972.5-7788.1-13973-7788.1L-13973-7788.1z"/>
	<path id="Path_2856" d="M-13989-7797v24h24v-24H-13989z M-13969.5-7781.9c0,0.6-0.1,1.2-0.3,1.8c-0.4,1-1.2,1.8-2.2,2.2
		c-0.6,0.2-1.2,0.3-1.8,0.3c-1,0.1-2.1,0.1-3.1,0.1c-2,0-2.3,0-3.1,0c-0.6,0-1.2-0.1-1.8-0.3c-1-0.4-1.8-1.2-2.2-2.2
		c-0.2-0.6-0.3-1.2-0.3-1.8c-0.1-1-0.1-2.1-0.1-3.1c0-2,0-2.3,0-3.1c0-0.6,0.1-1.2,0.3-1.8c0.4-1,1.2-1.8,2.2-2.2
		c0.6-0.2,1.2-0.3,1.8-0.3c1-0.1,2.1-0.1,3.1-0.1c2,0,2.3,0,3.1,0c0.6,0,1.2,0.1,1.8,0.3c1,0.4,1.8,1.2,2.2,2.2
		c0.2,0.6,0.3,1.2,0.3,1.8c0.1,1,0.1,2.1,0.1,3.1C-13969.5-7783-13969.5-7782.7-13969.5-7781.9z"/>
</g>
</svg>
