<svg xmlns="http://www.w3.org/2000/svg" viewBox="13955 7526 24 24">
  <defs>
    <style>
      .cls-1 {
        fill: #444;
      }
    </style>
  </defs>
  <path id="Untitled-3-02" class="cls-1" d="M12.387,1.112a10.79,10.79,0,0,0-1.966.174A6.738,6.738,0,0,0,6.893.3,6.549,6.549,0,0,0,.3,6.851a6.451,6.451,0,0,0,.925,3.3,10.007,10.007,0,0,0-.231,2.261,11.38,11.38,0,0,0,11.451,11.3,12.614,12.614,0,0,0,2.082-.174,6.381,6.381,0,0,0,3.123.754A6.636,6.636,0,0,0,24.3,17.749a6.128,6.128,0,0,0-.694-2.9,11.664,11.664,0,0,0,.289-2.435A11.43,11.43,0,0,0,12.387,1.112Zm5.9,16.7a5.117,5.117,0,0,1-2.313,1.739,9.444,9.444,0,0,1-3.586.638,8.785,8.785,0,0,1-4.106-.87,5.89,5.89,0,0,1-1.908-1.681A3.83,3.83,0,0,1,5.62,15.6a1.453,1.453,0,0,1,.463-1.043A1.654,1.654,0,0,1,7.3,14.1a1.358,1.358,0,0,1,.983.348,2.688,2.688,0,0,1,.694.986,6.932,6.932,0,0,0,.636,1.159,2.753,2.753,0,0,0,.983.754,4.364,4.364,0,0,0,1.677.29,4.035,4.035,0,0,0,2.313-.58,1.714,1.714,0,0,0,.867-1.391,1.3,1.3,0,0,0-.463-1.1,2.713,2.713,0,0,0-1.214-.638,17.97,17.97,0,0,0-2.082-.522,14.53,14.53,0,0,1-3.007-.87,4.606,4.606,0,0,1-1.966-1.449,3.775,3.775,0,0,1,0-4.522,5.134,5.134,0,0,1,2.2-1.507,9.71,9.71,0,0,1,3.354-.522,8.977,8.977,0,0,1,2.66.348,4.728,4.728,0,0,1,1.966.87A4.184,4.184,0,0,1,18,6.967a2.827,2.827,0,0,1,.347,1.275,1.7,1.7,0,0,1-.463,1.1,1.408,1.408,0,0,1-1.157.464,1.651,1.651,0,0,1-.983-.29,2.552,2.552,0,0,1-.694-.928,3.86,3.86,0,0,0-1.041-1.275A3.3,3.3,0,0,0,12.1,6.851a3.792,3.792,0,0,0-1.966.464,1.254,1.254,0,0,0-.694,1.1.873.873,0,0,0,.231.638,3.605,3.605,0,0,0,.694.522,3.019,3.019,0,0,0,.925.348c.347.116.867.232,1.561.406a23.283,23.283,0,0,1,2.545.638,7.732,7.732,0,0,1,1.966.87,3.5,3.5,0,0,1,1.272,1.333,4.134,4.134,0,0,1,.463,1.971A4.3,4.3,0,0,1,18.286,17.807Z" transform="translate(13954.7 7525.7)"/>
</svg>
