<svg xmlns="http://www.w3.org/2000/svg" viewBox="14023 7797 24 24">
  <defs>
    <style>
      .cls-1 {
        fill: #444;
      }
    </style>
  </defs>
  <g id="telegram" transform="translate(14023 7797)">
    <path id="Path_2857" data-name="Path 2857" class="cls-1" d="M0,0V24H24V0ZM8.212,13.425,5.175,12.413s-.45-.15-.525-.525c-.037-.375.525-.562.525-.562L17.212,6.6s.975-.45.975.3L16.05,17.7a.782.782,0,0,1-1.125.375L11.888,15.75l-1.95,1.8a.365.365,0,0,1-.337.038s-.15,0-.337-.6c-.15-.562-1.05-3.562-1.05-3.562Z"/>
    <path id="Path_2858" data-name="Path 2858" class="cls-1" d="M24.012,28.706s5.475-4.913,5.7-5.138.15-.263.15-.263c0-.262-.412,0-.412,0L23,27.281l1.087,3.975Z" transform="translate(-14.375 -14.493)"/>
  </g>
</svg>
