<svg xmlns="http://www.w3.org/2000/svg" viewBox="14172 7527 24 25.143">
  <defs>
    <style>
      .cls-1 {
        fill: #444;
      }
    </style>
  </defs>
  <path id="viber-01" class="cls-1" d="M23.472,6.061h0a8.112,8.112,0,0,0-5.61-5.48,30.889,30.889,0,0,0-11.674,0A8.256,8.256,0,0,0,.578,6v.057a22.849,22.849,0,0,0,0,9.989v.057a8.389,8.389,0,0,0,5.27,5.365V24.1a1.051,1.051,0,0,0,1.813.742l2.664-2.8a16.919,16.919,0,0,0,1.7.057,28.907,28.907,0,0,0,5.837-.571,8.483,8.483,0,0,0,5.61-5.423V16.05A22.849,22.849,0,0,0,23.472,6.061Zm-6.007,9.646a3,3,0,0,1-1.417,1.6c-.17.057-.4.114-.623.171-.227-.114-.453-.114-.68-.228A15.794,15.794,0,0,1,8.851,13.31a13.282,13.282,0,0,1-2.21-3.539c-.283-.628-.567-1.2-.793-1.827A1.564,1.564,0,0,1,6.3,6.4a3.178,3.178,0,0,1,1.19-.913.8.8,0,0,1,.963.228,11.116,11.116,0,0,1,1.53,2.112A1.015,1.015,0,0,1,9.7,9.2c-.113.114-.227.171-.34.285-.057.114-.17.171-.227.285a.79.79,0,0,0-.057.628A6.1,6.1,0,0,0,12.2,14a1.8,1.8,0,0,0,.793.171c.51-.057.68-.628,1.02-.913a.933.933,0,0,1,1.133-.057c.4.228.737.514,1.077.742.34.285.68.514,1.02.8A.8.8,0,0,1,17.465,15.707ZM16.5,10.513a.345.345,0,0,0-.057.228.325.325,0,0,1-.623.057.518.518,0,0,1-.057-.285,4.59,4.59,0,0,0-.453-1.884,3.037,3.037,0,0,0-1.36-1.313,3.4,3.4,0,0,0-1.077-.342c-.17,0-.34-.057-.51-.057s-.283-.114-.283-.342c0-.171.113-.285.34-.285a4.4,4.4,0,0,1,1.927.514,3.946,3.946,0,0,1,2.1,3.025V10A1.427,1.427,0,0,1,16.5,10.513Zm-1.587-.571v.285c-.057.171-.17.228-.227.171-.227,0-.4-.114-.4-.342a1.265,1.265,0,0,0-.057-.457,1.738,1.738,0,0,0-.51-.742c-.113-.057-.283-.114-.4-.171a1.735,1.735,0,0,1-.567-.057c-.227-.057-.34-.228-.283-.4a.426.426,0,0,1,.4-.285A1.987,1.987,0,0,1,14.915,9.943Zm2.72,1.712c-.227,0-.34-.171-.34-.4-.057-.4-.057-.856-.113-1.256a5.263,5.263,0,0,0-4.194-4.4c-.283-.057-.623-.057-.963-.114-.227-.057-.453-.057-.51-.228a.32.32,0,0,1,.34-.4h.17c.113,0,2.834.057,0,0a5.855,5.855,0,0,1,5.78,4.909,11.848,11.848,0,0,1,.17,1.484A.377.377,0,0,1,17.635,11.655Z" transform="translate(14171.975 7526.975)"/>
</svg>
