<svg xmlns="http://www.w3.org/2000/svg" viewBox="13955 7797 24 24">
  <defs>
    <style>
      .cls-1 {
        fill: #444;
      }
    </style>
  </defs>
  <path id="vk" class="cls-1" d="M0,0V24H24V0ZM19.463,16.838H17.25a1.642,1.642,0,0,1-1.087-.338c-.825-.562-1.613-2.025-2.213-1.837s-.6,1.5-.6,1.5,0,.3-.15.412a.91.91,0,0,1-.45.188h-.975a5.778,5.778,0,0,1-4.088-1.838,27.238,27.238,0,0,1-3.9-6.45s-.113-.3,0-.413c.112-.15.487-.15.487-.15H6.637a1,1,0,0,1,.375.15,1.156,1.156,0,0,1,.188.263,13.116,13.116,0,0,0,.9,1.837c.975,1.688,1.425,2.063,1.762,1.875.488-.263.338-2.4.338-2.4a2.366,2.366,0,0,0-.263-1.125,1.205,1.205,0,0,0-.712-.375c-.15,0,.075-.337.375-.45a5.1,5.1,0,0,1,2.062-.225,3.733,3.733,0,0,1,1.162.113c.825.188.525.938.525,2.775,0,.562-.113,1.387.3,1.65.188.113.638,0,1.725-1.837a14.043,14.043,0,0,0,.9-1.913.559.559,0,0,1,.225-.263.867.867,0,0,1,.337-.075h2.475s.75-.075.862.262-.263,1.163-1.275,2.513c-1.65,2.212-1.838,1.987-.45,3.263a7.2,7.2,0,0,1,1.612,1.875C20.625,16.763,19.463,16.838,19.463,16.838Z" transform="translate(13955 7797)"/>
</svg>
