<svg xmlns="http://www.w3.org/2000/svg" viewBox="14738 5995 12 12">
  <style>
    path {fill: white;}
  </style>
  <path id="slose_small-01" d="M9.429,7.943,11.794,10.3a.7.7,0,0,1,0,.989l-.514.511a.706.706,0,0,1-.994,0L6,7.5,1.714,11.8a.706.706,0,0,1-.994,0l-.514-.511a.7.7,0,0,1,0-.989L2.571,7.943,4.491,6,2.571,4.057.206,1.7a.7.7,0,0,1,0-.989L.72.2a.706.706,0,0,1,.994,0L6,4.5,10.286.2a.706.706,0,0,1,.994,0l.514.511a.7.7,0,0,1,0,.989L9.429,4.057,7.509,6Z" transform="translate(14738 5995)"/>
</svg>
