<?xml version="1.0" encoding="utf-8"?>
<!-- Generator: Adobe Illustrator 21.0.0, SVG Export Plug-In . SVG Version: 6.00 Build 0)  -->
<svg version="1.1" id="Layer_1" xmlns="http://www.w3.org/2000/svg" xmlns:xlink="http://www.w3.org/1999/xlink" x="0px" y="0px"
	 viewBox="0 0 260 55.2" style="enable-background:new 0 0 260 55.2;" xml:space="preserve">
<style type="text/css">
	.st0{fill:#FFFFFF;}
	.st1{opacity:0.2;enable-background:new    ;}
	.st2{fill:#DF2400;}
</style>
<g>
	<path d="M57.1,26.3c-0.3-1.7-1.1-3-1.6-4c-1.5-2.3-3.3-4-4.7-5.3c-0.3-0.3-0.8-0.7-1.2-1.1l-3.4-2.9l0,0l-0.4-0.2L43,10.9
		c-0.4-0.2-0.8-0.5-1.1-0.8c-1.2-0.8-2.5-1.6-3.8-2.4C33.5,5,29.1,2.9,25,1.6C22.5,0.9,19.6,0,16.2,0c-0.4,0-0.9,0-1.3,0
		C12,0.2,9.7,1.1,7.8,2.8C6.8,3.7,6,4.7,5.3,5.7c-2,2.8-2.9,5.9-3.6,8.2C0.7,18,0.1,22.1,0,27.1v0.1l0,0v0.1v0.1
		c0,0.7,0.1,1.3,0.1,2.1c0.1,1.3,0.1,2.7,0.2,3.9c0.3,3.5,1,6.8,2,9.9c1,2.8,2.1,5.1,3.5,7.1c2,2.6,4.5,4.1,7.4,4.7
		c1,0.2,2,0.2,2.9,0.2c1,0,2-0.1,3-0.2c2.5-0.3,5.1-1.1,7.8-2.1c5.9-2.3,11.5-5.3,16.8-9.1l0.9-0.7l0.9-0.7l0.5-0.2l0,0l3.4-2.9
		c0.7-0.7,1.3-1.2,2-1.7c1.1-1,2-2.1,2.8-3c0.9-1.1,2-2.6,2.6-4.6C57.3,28.7,57.3,27.5,57.1,26.3z M36.4,47.3L36.4,47.3
		C36.5,47.2,36.5,47.2,36.4,47.3C36.5,47.2,36.5,47.3,36.4,47.3z M43.8,12.6L43.8,12.6L43.8,12.6L43.8,12.6L43.8,12.6z"/>
	<polygon points="20.7,30.3 25.7,27.4 20.7,24.5 	"/>
	<path class="st0" d="M34.9,21.6c-0.2,0.1-0.7,0.3-0.9,0.5l-4.5,2.5c-0.2,0.1-0.7,0.1-0.9,0L17.2,18c-0.2-0.1-0.4,0-0.4,0.2v18
		c0,0.3,0.2,0.4,0.4,0.2l20.4-11.8c0.2-0.1,0.4,0,0.4,0.2v12.7c0,0.3-0.2,0.7-0.4,0.8c0,0-8.4,5-12.9,6.8c-2.1,0.8-4,1.3-5.9,1.6
		c-1.4,0.2-2.5,0.2-3.6,0C14,46.6,13,46,12.1,44.8c-1-1.2-1.6-2.7-2.3-4.7c-0.8-2.4-1.3-4.9-1.5-7.7c-0.1-1-0.1-2.2-0.2-3.4
		c0-0.7-0.1-1.4-0.1-1.4c0-0.3,0-0.8,0-1c0,0,0.4-6.7,1.4-10.1c0.7-2.5,1.4-4.2,2.4-5.7c0.4-0.5,0.9-1.1,1.4-1.6
		c0.7-0.7,1.6-1,2.8-1C18.5,8,21,8.7,23,9.3c3.4,1.1,7,2.7,10.9,5c0.9,0.5,2.1,1.3,2.1,1.3c0.2,0.1,0.7,0.1,0.9,0l3-1.6
		c0.2-0.1,0.2-0.3,0-0.5c0,0-0.2-0.1-0.5-0.3c-1.1-0.8-2.3-1.4-3.5-2.2c-4.1-2.4-7.9-4.2-11.6-5.4c-2.4-0.8-5.3-1.5-8.5-1.3
		c-2.2,0.1-3.9,0.9-5.3,2.1C9.7,7.1,9,7.8,8.5,8.6c-1.6,2.3-2.5,4.9-3,6.8c-1,3.7-1.5,11.1-1.5,11.1c0,0.3,0,0.5,0,0.5v0.1
		c0,0,0,0.2,0,0.5c0,0,0,0.8,0.1,1.4c0.1,1.2,0.1,2.5,0.2,3.6c0.2,3,0.9,6,1.6,8.6c0.8,2.4,1.7,4.3,2.9,5.9c1.5,2,3.4,3.2,5.5,3.6
		c0.8,0.1,1.5,0.2,2.4,0.2c0.8,0,1.6-0.1,2.5-0.2c2.2-0.3,4.3-0.9,6.7-1.8c5.2-2,14.6-7.8,14.6-7.8c0.2-0.1,0.7-0.4,0.9-0.5
		c0.2-0.1,0.4-0.5,0.4-0.8V18.4c0-0.3-0.2-0.4-0.4-0.2L34.9,21.6z M21.1,30.1c-0.2,0.1-0.4,0-0.4-0.2V25c0-0.3,0.2-0.4,0.4-0.2
		l4.1,2.4c0.2,0.1,0.2,0.3,0,0.5L21.1,30.1z"/>
	<polygon class="st1" points="16.6,36.8 37.9,38.2 37.9,24.5 29.2,29.6 25.3,27.2 20.7,30 20.7,34.6 	"/>
	<path class="st0" d="M52.8,26.3c-0.2-1.3-0.8-2.3-1.3-2.9c-1.2-2-2.8-3.5-4-4.6c-0.3-0.3-0.7-0.7-0.7-0.7c-0.2-0.2-0.4-0.1-0.4,0.2
		v4.5c0,0.3,0.1,0.7,0.3,0.9c0,0,0.9,1.1,1.4,1.7c0.4,0.7,0.7,1.1,0.7,1.5c0,0.1,0,0.2-0.1,0.5c-0.2,0.9-0.9,1.6-1.3,2.3
		c-0.3,0.4-0.7,0.8-0.7,0.8c-0.2,0.2-0.3,0.7-0.3,0.9v4.5c0,0.3,0.2,0.3,0.4,0.2c0,0,0.8-0.7,1.3-1.2c0.9-0.9,1.7-1.7,2.4-2.6
		c0.7-0.9,1.5-2.1,2.1-3.6C52.8,27.9,52.9,27.2,52.8,26.3z"/>
	<g>
		<path class="st2" d="M79.5,15.4l8.2-7.6c0.9-0.8,1.7-1.4,2.5-1.7c0.8-0.3,1.5-0.5,2.1-0.5c0.7,0,1.1,0.1,1.5,0.4
			c0.4,0.3,0.7,0.8,0.9,1.3c0,0.2,0.1,0.4,0.1,0.7c0,0.2,0.1,0.4,0.1,0.7c0,0.1,0,0.2,0,0.3c0,0.1,0,0.2,0,0.3
			c-0.1,0.7-0.3,1.3-0.8,2.1c-0.4,0.8-0.9,1.6-1.5,2.8c-0.1,0.2-0.2,0.4-0.3,0.7c-0.1,0.2-0.2,0.4-0.3,0.7c-0.1,0.2-0.3,0.5-0.4,0.8
			c-0.2,0.2-0.3,0.5-0.4,0.8c-0.3,0.4-0.7,0.9-0.9,1.3c-0.2,0.4-0.5,0.8-0.8,1.1l14.5-13c0.3-0.2,0.5-0.4,0.9-0.5
			c0.2-0.1,0.4-0.2,0.7-0.2c0.4,0,0.9,0.2,1.2,0.5c0.3,0.3,0.7,0.8,1,1.1c0.2,0.2,0.3,0.4,0.4,0.7c0.1,0.2,0.2,0.4,0.2,0.5v0.1v0.1
			c0,0.2-0.1,0.4-0.2,0.8c-0.1,0.2-0.3,0.5-0.5,0.9c-0.5,0.8-1.3,1.6-2.1,2.5c-0.8,0.9-1.5,1.8-2.3,2.8c-0.1,0.1-0.1,0.1-0.2,0.2
			c-0.1,0.1-0.1,0.2-0.2,0.2c-1.3,1.6-2.5,3.2-3.7,4.7c-1.1,1.5-1.8,2.6-2.3,3.5c-0.2,0.7-0.4,1.2-0.5,1.6c-0.1,0.5-0.2,1-0.2,1.3
			c0,0.5,0.1,1,0.3,1.3c0.2,0.3,0.5,0.4,1,0.4c0.1,0,0.3,0,0.4-0.1c0.2,0,0.3-0.1,0.5-0.2c1.1-0.4,2.3-1.2,3.7-2.3
			c1.4-1.1,2.9-2.4,4.6-4.1l0.3,1.7c-0.2,0.3-0.5,0.8-0.9,1.1s-0.7,0.8-1,1.1c-0.2,0.2-0.3,0.3-0.5,0.5c-0.2,0.2-0.4,0.4-0.7,0.7
			c-0.7,0.7-1.3,1.2-2,1.6c-0.7,0.5-1.1,0.9-1.4,1.1c-1.4,1.1-2.7,1.7-3.7,2.2c-1,0.4-1.8,0.7-2.5,0.7c-0.7,0-1.2-0.1-1.6-0.4
			c-0.4-0.3-0.7-0.7-0.9-1c-0.3-0.4-0.5-1-0.7-1.5c-0.1-0.5-0.2-1.1-0.2-1.6c0-2,0.8-4.1,2.2-6.3c1.5-2.3,3.3-4.8,5.3-7.5
			c-0.3,0.3-1,0.9-1.8,1.6c-0.9,0.8-1.8,1.5-2.9,2.5c-0.1,0.1-0.2,0.2-0.3,0.2c-0.1,0.1-0.2,0.2-0.3,0.3c-0.7,0.5-1.3,1.1-2,1.7
			c-0.7,0.5-1.1,1.1-1.5,1.5l-6.6,7.6c-0.1,0.1-0.2,0.3-0.4,0.4c-0.1,0.2-0.3,0.4-0.5,0.7c-0.2,0.2-0.4,0.4-0.7,0.7
			c-0.2,0.2-0.4,0.3-0.7,0.4c-0.1,0-0.1,0-0.2,0h-0.1c-0.2,0-0.3,0-0.5-0.1c-0.2-0.1-0.3-0.3-0.4-0.5c-0.3-0.7-0.5-1.2-0.8-1.7
			c-0.2-0.5-0.2-1-0.2-1.5c0-0.1,0-0.3,0-0.4s0-0.2,0.1-0.4c0.1-0.3,0.2-0.5,0.3-0.9c0.1-0.3,0.3-0.5,0.5-0.9
			c0.5-0.7,1.1-1.3,1.6-2.2c0.7-0.9,1.2-1.6,1.8-2.5c0.3-0.4,0.7-0.9,1-1.3c0.3-0.4,0.7-0.9,1-1.3c0.1-0.1,0.2-0.2,0.3-0.4
			c0.1-0.1,0.2-0.3,0.3-0.4c1.7-2.5,2.9-4.5,3.7-6.1c0.8-1.5-0.3-1-3,1.7l-6.4,6.6c-0.4,0.5-0.9,1.3-1.5,2.1
			c-0.5,0.8-1.2,1.5-1.8,2.4L76,24.2l-0.1,0.1c-1,1.3-2,2.5-2.8,3.6c-0.9,1.1-1.4,1.8-1.6,2.1c-0.3,0.4-0.7,0.9-1,1.1
			c-0.3,0.2-0.7,0.3-1,0.3c-0.7,0-1.2-0.3-1.7-1s-0.9-1.5-1.1-2.4c0-0.2-0.1-0.4-0.1-0.7s0-0.4,0-0.7l7.9-9.5
			c0.1-0.3,0.3-0.5,0.4-0.9c0.2-0.3,0.3-0.7,0.5-1c0,0,0.1-0.1,0.1-0.2c0-0.1,0.1-0.1,0.1-0.2c0.5-1,1.1-2,1.5-2.8
			c0.4-0.9,0.8-1.6,0.8-2.1c0-0.2,0-0.3-0.1-0.4c-0.1-0.1-0.3-0.2-0.5-0.2c-0.2,0-0.5,0.1-1,0.2c-0.4,0.1-0.9,0.3-1.5,0.7l-8.2,4.2
			c-0.5,0.3-1.1,0.5-1.5,0.8c-0.4,0.1-0.8,0.2-1.1,0.2c-0.4,0-0.7-0.1-0.9-0.3c0,0.2-0.1,0-0.1-0.4l0.7-3.7c0-0.1,0-0.3,0.1-0.4
			c0.1-0.2,0.2-0.3,0.4-0.5c0.1-0.1,0.1-0.1,0.2-0.2c0.1-0.1,0.1-0.2,0.2-0.2c0.1-0.1,0.2-0.2,0.3-0.3s0.2-0.2,0.2-0.2l1.8-1.5
			c0,0,0.1,0,0.1-0.1l0.1-0.1c0.3-0.2,0.7-0.4,0.9-0.5c0.3-0.1,0.5-0.2,0.8-0.2c0.1,0,0.2,0,0.3,0s0.1,0.1,0.1,0.2
			c0,0.2-0.1,0.4-0.4,0.8c-0.2,0.3-0.8,0.8-1.4,1.3c0.5-0.2,1.2-0.4,1.7-0.7s1.1-0.4,1.6-0.8c1.6-0.8,3.2-1.4,4.6-2.1
			c1.4-0.7,2.4-0.9,3.2-0.9c0.2,0,0.4,0,0.5,0.1c0.2,0.1,0.3,0.1,0.4,0.3c0.1,0.1,0.3,0.3,0.4,0.4c0.2,0.2,0.3,0.4,0.4,0.7
			c0.1,0.2,0.3,0.4,0.4,0.7C81,7,81.2,7.2,81.3,7.5c0.1,0.1,0.1,0.3,0.2,0.4s0.1,0.3,0.1,0.4c0,0,0,0,0,0.1c0,0,0,0,0,0.1
			c0,0,0,0,0,0.1c0,0,0,0,0,0.1c0,0.3-0.1,0.9-0.3,1.4c-0.2,0.7-0.4,1.3-0.8,2c0,0.1-0.1,0.2-0.1,0.3s-0.1,0.2-0.1,0.3
			c-0.2,0.5-0.4,1.1-0.7,1.5C79.8,14.8,79.6,15.1,79.5,15.4L79.5,15.4z"/>
		<path class="st2" d="M109,26.3c0,1,0.2,1.6,0.7,2.1s1,0.7,1.6,0.7c0.9,0,2.1-0.3,3.5-1.1c1.4-0.8,3-2,4.9-3.4L120,26
			c-0.4,0.4-0.8,1-1.2,1.4c-0.4,0.4-0.8,0.9-1.2,1.2c-1.4,1.4-2.8,2.4-4.2,3c-1.4,0.7-2.6,1-3.8,1c-1.3,0-2.4-0.4-3.3-1.2
			c-0.9-0.8-1.2-2-1.2-3.6c0-0.4,0-1,0.1-1.5c0.1-0.5,0.2-1.1,0.3-1.6c0.1-0.3,0.2-0.7,0.3-1s0.3-0.7,0.5-1c0.7-1,1.4-2,2.5-2.8
			c1.1-0.9,2.2-1.5,3.3-2c0.7-0.3,1.3-0.4,1.8-0.5c0.5-0.1,1.1-0.2,1.5-0.2c1,0,1.6,0.2,2.2,0.7c0.4,0.4,0.7,1,0.8,1.5
			c0,0.3,0,0.7-0.1,1s-0.2,0.7-0.5,1c-0.2,0.4-0.5,0.8-1,1.1c-0.4,0.3-0.9,0.8-1.3,1.1c-0.4,0.3-0.9,0.5-1.3,0.9
			c-0.4,0.2-1,0.4-1.4,0.7c-0.8,0.3-1.4,0.7-2.1,0.9C110.1,26,109.6,26.2,109,26.3L109,26.3z"/>
		<path class="st2" d="M122.3,25.1c0,0.1,0,0.2,0,0.3s0,0.1,0,0.2c0,1.2,0.1,2,0.5,2.5s0.9,0.8,1.5,0.8c0.7,0,1.4-0.2,2.2-0.5
			c0.8-0.4,1.6-1,2.4-1.7c0.3-0.2,0.7-0.5,0.9-0.9c0.3-0.3,0.5-0.7,0.9-0.9l1,1.4c-0.3,0.4-0.5,0.8-0.9,1.1c-0.3,0.3-0.7,0.7-0.9,1
			c-1.6,1.5-3,2.6-4.5,3.2c-1.4,0.7-2.4,0.9-2.8,0.9c-1.2,0-2.1-0.3-2.6-1.1c-0.5-0.8-0.8-1.5-0.9-2.5c0-0.3-0.1-0.7-0.1-1
			s0-0.7,0-0.9c0-0.1,0-0.2,0-0.3s0-0.2,0-0.3c0-0.7,0.1-1.3,0.2-2c0.1-0.7,0.3-1.3,0.5-2c0.4-1.4,1.2-2.7,2-4
			c0.9-1.3,1.6-2.5,2.6-3.7c1-1.2,1.8-2.2,2.7-3c0.9-0.9,1.5-1.5,2-2c0.4-0.3,0.9-0.7,1.2-0.9c0.3-0.2,0.7-0.3,1-0.3
			c0.3,0,0.7,0.1,0.9,0.5c0.2,0.3,0.3,1,0.3,2c0,0.4-0.3,1.4-1,3s-1.7,3.4-3.3,5.3c-0.2,0.3-0.4,0.5-0.8,0.9
			c-0.2,0.2-0.5,0.5-0.8,0.9c-0.1,0.1-0.1,0.1-0.2,0.2c-0.1,0.1-0.1,0.1-0.2,0.2s-0.2,0.2-0.3,0.3c-0.1,0.1-0.2,0.2-0.3,0.3
			c-0.5,0.5-1.1,1.2-1.6,1.7C123.3,24.3,122.7,24.8,122.3,25.1L122.3,25.1z M123.5,21.2c0.2-0.1,0.7-0.5,1.1-1.1s1-1.2,1.4-1.8
			c0.2-0.2,0.3-0.4,0.5-0.7c0.1-0.2,0.3-0.4,0.4-0.7c0.4-0.8,0.9-1.4,1.3-2.2c0.3-0.7,0.5-1.2,0.7-1.6c-0.3,0.2-0.7,0.4-1,0.9
			c-0.3,0.3-0.8,0.8-1.1,1.2s-0.7,0.9-1,1.3c-0.3,0.4-0.7,0.9-0.9,1.3c-0.3,0.5-0.7,1.2-1,1.7C123.8,20.2,123.6,20.8,123.5,21.2
			L123.5,21.2z"/>
		<path class="st2" d="M142.6,19.7c0.4,0.2,0.7,0.5,0.9,0.9c0.2,0.3,0.2,0.8,0.2,1.3c0,0.7-0.1,1.4-0.4,2.2
			c-0.2,0.9-0.7,1.7-1.1,2.6c0,0,0.1,0,0.2,0s0.1,0,0.1,0c0.1,0,0.2,0,0.3,0s0.2-0.1,0.3-0.1c0.3-0.1,0.7-0.3,1-0.5
			c0.3-0.2,0.7-0.5,0.9-0.8c0.1-0.1,0.2-0.2,0.4-0.4c0.1-0.1,0.2-0.2,0.3-0.3l0.5,1.7c-1.2,1.5-2.3,2.5-3.3,2.7s-1.8,0.3-2.7,0.3
			c-0.1,0-0.1,0-0.2,0s-0.1,0-0.2,0c-0.5,0.7-1.1,1.2-1.7,1.6s-1.3,0.8-2,1c-0.3,0.1-0.7,0.1-1,0.2c-0.3,0-0.7,0.1-0.9,0.1
			c-0.8,0-1.5-0.2-2.2-0.5s-1.1-0.9-1.4-1.5c-0.2-0.5-0.4-1.2-0.5-1.7c-0.1-0.5-0.2-1.2-0.2-1.7c0-2,0.7-3.7,2-5.2
			c1.3-1.5,2.9-2.7,4.9-3.4c0.2-0.1,0.4-0.1,0.7-0.2s0.4-0.1,0.7-0.2c0.4-0.1,0.9-0.1,1.2-0.2c0.4,0,0.8-0.1,1.1-0.1
			c0.7,0,1.2,0,1.6,0.2c0.4,0.2,0.7,0.4,0.7,0.8c0,0.1,0,0.3-0.1,0.5C143,19.2,142.8,19.5,142.6,19.7L142.6,19.7z M138.7,22.1
			C138.7,22.1,138.7,22.2,138.7,22.1c-0.1,0.1-0.1,0.1-0.1,0.1c-1.3,0.5-2.5,1.3-3.6,2.1c-1,0.8-1.6,1.8-1.7,3.4c0,0,0,0.1,0,0.2
			s0,0.1,0,0.2c0,0.4,0.1,0.8,0.4,1.1c0.3,0.3,0.7,0.4,1.2,0.4c0.4,0,0.9-0.1,1.3-0.3c0.5-0.2,1.1-0.5,1.6-1c-0.1-0.3-0.2-0.7-0.3-1
			s-0.1-0.7-0.1-1c0-0.7,0.1-1.3,0.4-2.1C137.9,23.6,138.3,22.8,138.7,22.1L138.7,22.1z"/>
		<path class="st2" d="M158.5,19c0.2-0.5,0.5-1.2,1-2.1c0.4-0.9,0.9-1.7,1.4-2.6c0.2-0.4,0.4-0.9,0.8-1.2c0.2-0.4,0.5-0.8,0.8-1.1
			c0.7-1,1.2-1.7,1.8-2.3c0.5-0.7,1.1-1,1.5-1c0,0,0,0,0.1,0c0,0,0,0,0.1,0c0.5,0.1,0.9,0.3,1.1,0.5c0.2,0.2,0.3,0.5,0.3,1
			c0,0.5-0.1,1.2-0.4,1.8c-0.3,0.7-0.7,1.4-1.1,2.1c-0.1,0.2-0.2,0.4-0.4,0.5c-0.1,0.2-0.2,0.4-0.4,0.5c-0.4,0.5-0.8,1.2-1.2,1.6
			c-0.3,0.5-0.7,1-0.9,1.4c-0.1,0.2-0.2,0.4-0.4,0.7c-0.1,0.2-0.2,0.4-0.4,0.7c-0.1,0.2-0.2,0.3-0.3,0.5c-0.1,0.2-0.2,0.3-0.3,0.5
			c-0.8,1.2-1.4,2.4-2.1,3.5c-0.7,1.2-0.9,2.2-0.9,2.9c0,0.2,0,0.5,0.1,0.8s0.1,0.4,0.3,0.7c0.1,0.1,0.2,0.2,0.3,0.2
			s0.2,0.1,0.3,0.1c0.7,0,1.4-0.4,2.5-1.3c1.1-0.9,2.3-1.8,3.5-2.9l0.3,1.4c-0.4,0.7-1,1.2-1.5,1.7c-0.5,0.5-1,1.1-1.5,1.5
			c-1,1-2.1,1.7-3,2.3c-1,0.5-1.8,0.9-2.7,0.9c0,0,0,0-0.1,0s0,0-0.1,0c0,0,0,0-0.1,0c0,0,0,0-0.1,0c-0.5-0.1-1-0.5-1.3-1.3
			c-0.3-0.8-0.4-1.6-0.4-2.5c0-0.1,0-0.2,0-0.3s0-0.2,0-0.3c0-0.2,0-0.4,0.1-0.7c0-0.2,0.1-0.4,0.1-0.7c-0.2,0.2-0.5,0.4-0.8,0.8
			c-0.2,0.2-0.5,0.4-0.8,0.8c0,0,0,0-0.1,0.1c-0.9,0.9-1.6,1.5-2.5,2.3c-0.8,0.7-1.5,1-2.3,1.1c-0.4,0-0.8-0.1-1.2-0.4
			c-0.3-0.2-0.7-0.8-1-1.3c-0.3-0.5-0.4-1.1-0.7-1.6s-0.2-1.1-0.2-1.5c0-1.5,0.5-2.9,1.7-4.2c1.2-1.3,2.7-2.4,4.5-3.3
			c0.2-0.1,0.4-0.2,0.7-0.2c0.2-0.1,0.5-0.2,0.8-0.3c0.2-0.1,0.5-0.2,0.8-0.3c0.2-0.1,0.5-0.1,0.8-0.2c0.2-0.1,0.4-0.1,0.8-0.2
			c0.2,0,0.4-0.1,0.8-0.1c0.4,0,0.9,0.1,1.2,0.2C157.9,18.5,158.3,18.7,158.5,19L158.5,19z M157,21.7c-0.4,0.1-0.9,0.2-1.4,0.4
			c-0.5,0.1-1,0.3-1.5,0.5c-1.2,0.4-2.3,1.1-3.3,1.8c-1,0.8-1.5,1.7-1.5,2.8c0,0.1,0,0.1,0,0.2s0,0.1,0,0.2s0,0.1,0,0.2
			s0,0.1,0.1,0.2c0,0.2,0.4,0.1,1.2-0.4c0.8-0.5,1.6-1.2,2.6-2c0.2-0.2,0.4-0.3,0.7-0.5s0.4-0.4,0.7-0.7c0.5-0.5,1-1.1,1.4-1.5
			C156.4,22.6,156.7,22.2,157,21.7L157,21.7z"/>
		<path class="st2" d="M169.6,30.3c-0.9,0.5-1.4,0.9-1.7,0.9c-0.8-0.2-1.4-0.8-2-1.6c-0.5-0.9-0.9-1.8-0.9-3c0-0.9,0.2-1.8,0.5-2.9
			c0.4-1.1,1.1-2.1,2.1-3.2c0.3-0.3,0.5-0.7,0.9-0.9c0.3-0.3,0.7-0.5,1.1-0.9c0.7-0.5,1.2-0.9,1.6-1.1c0.4-0.2,0.8-0.3,1.1-0.3
			c0.1,0,0.2,0,0.3,0s0.2,0.1,0.3,0.1c0.2,0.1,0.3,0.2,0.5,0.4c0.2,0.2,0.4,0.4,0.7,0.7l0.1,0.1c0,0.1,0,0.1,0,0.2
			c0,0.3-0.2,0.8-0.5,1.4c-0.4,0.5-0.9,1.2-1.4,1.8c-0.2,0.2-0.4,0.5-0.8,0.8c-0.2,0.2-0.4,0.4-0.8,0.8c-0.4,0.4-0.9,0.9-1.3,1.2
			c-0.4,0.3-0.8,0.7-1.1,0.8c-0.1,0.1-0.2,0.3-0.3,0.4c-0.1,0.2-0.1,0.3-0.2,0.5c0,0.2-0.1,0.4-0.1,0.7s0,0.3,0,0.4
			c0,0.2,0.2,0.2,0.7,0s1-0.5,1.5-1c0.1,0,0.1-0.1,0.2-0.1c0.1,0,0.1-0.1,0.2-0.1c0.2-0.1,0.4-0.3,0.7-0.4s0.4-0.3,0.5-0.4l6.4-5.9
			c0.9-0.8,1.5-1.2,2-1.6c0.4-0.3,0.8-0.2,1.1,0.4c0.1,0.2,0.2,0.4,0.2,0.5c0,0.2,0.1,0.4,0.1,0.5c0,0.3,0,0.8-0.2,1.1
			c-0.2,0.4-0.4,0.9-0.7,1.3l-6.1,9l8.5-7.3l0.2,1.5l-13.7,14.6c0,0.1-0.1,0.1-0.2,0.1c-0.1,0-0.1,0-0.2,0c-0.1,0-0.1,0-0.2,0
			c-0.1,0-0.1-0.1-0.2-0.1c-0.2-0.1-0.4-0.4-0.7-0.8c-0.2-0.3-0.3-0.8-0.3-1.2c0-0.2,0-0.5,0.1-0.9c0.1-0.3,0.2-0.7,0.4-1l5.8-9.5
			C172,28.6,170.4,29.8,169.6,30.3z"/>
		<path class="st2" d="M205.2,13.3c0.1-0.1,0.2-0.2,0.4-0.4c0.2-0.2,0.4-0.4,0.7-0.7c0.1-0.1,0.2-0.3,0.4-0.4
			c0.2-0.1,0.2-0.3,0.3-0.4c0.1-0.2,0.3-0.4,0.3-0.5s0.1-0.3,0.1-0.5c0-0.1,0-0.3-0.1-0.4c-0.1-0.1-0.2-0.2-0.3-0.3
			c-0.1,0-0.2-0.1-0.3-0.1s-0.2,0-0.4,0c-0.7,0-1.5,0.1-2.6,0.4c-1.1,0.3-2.3,0.7-3.6,1c-0.2,0.1-0.5,0.1-0.8,0.2
			c-0.2,0.1-0.4,0.2-0.8,0.2c-1.2,0.4-2.3,0.8-3.3,1.1c-1,0.3-1.6,0.5-2.1,0.8c0.4,0.1,0.5,0.3,0.7,0.4c0,0.1,0,0.3-0.2,0.4
			c-0.2,0.1-0.4,0.3-0.8,0.4c-0.3,0.1-0.7,0.3-1.1,0.4l0,0c-0.1,0-0.1,0.1-0.2,0.1c-0.1,0-0.1,0.1-0.2,0.1c-0.3,0.1-0.5,0.2-0.9,0.4
			c-0.3,0.1-0.7,0.3-0.9,0.4c-0.3,0.2-0.8,0.4-1.1,0.5c-0.3,0.2-0.7,0.3-1,0.5c-0.3,0.2-0.7,0.4-1,0.5c-0.3,0.1-0.5,0.2-0.8,0.2
			c-0.4,0-0.8-0.2-1-0.5s-0.2-0.8-0.2-1.3c0-0.2,0-0.4,0-0.7c0-0.2,0.1-0.4,0.1-0.8c0.1-0.4,0.2-0.9,0.3-1.2
			c0.1-0.4,0.2-0.8,0.3-1.1c0.1-0.2,0.2-0.4,0.3-0.5s0.2-0.3,0.2-0.3c1.6-1,3.5-1.8,5.7-2.7c2.2-0.9,4.3-1.5,6.5-2.2
			c1.5-0.4,3.2-0.8,4.7-1c1.5-0.2,2.9-0.3,4.3-0.3c0.1,0,0.1,0,0.2,0s0.2,0,0.2,0c0.1,0,0.2,0,0.2,0c0.1,0,0.1,0,0.2,0
			c1.2,0,2.1,0.3,2.6,1c0.5,0.7,0.8,1.5,0.8,2.5c0,0.2,0,0.4,0,0.7c0,0.2-0.1,0.4-0.1,0.7c-0.1,0.5-0.3,1.1-0.7,1.6
			c-0.3,0.5-0.7,1-1.1,1.4l-6.1,6.6l5.4-0.7l6.6-8.5c0,0,0.1-0.1,0.2-0.2c0.1-0.1,0.1-0.1,0.2-0.2c0.1-0.2,0.3-0.3,0.5-0.5
			c0.2-0.2,0.3-0.3,0.5-0.5c0.4-0.4,1-0.9,1.4-1.1s0.8-0.3,0.9-0.1c0,0,0.1,0.1,0.1,0.2s0.1,0.1,0.1,0.2c0,0.1,0.1,0.2,0.1,0.3
			c0,0.1,0.1,0.2,0.1,0.4c0,0.4-0.1,1-0.4,1.4c-0.3,0.5-0.7,1.2-1.2,2l-5.4,6.6h0.1h0.1c0.8,0,1.4,0.1,2.3,0.2
			c0.8,0.1,1.6,0.4,2.6,1.1c-0.2,0.2-0.4,0.4-0.8,0.5c-0.2,0.2-0.4,0.4-0.8,0.7c-0.8,0.5-1.4,1.2-2.1,1.8c-0.7,0.7-1.2,1.4-1.6,2.2
			c-0.3-0.1-0.7-0.2-1-0.3c-0.3,0-0.7-0.1-0.9-0.1c-0.1,0-0.2,0-0.3,0s-0.2,0-0.3,0H210h-0.1c-0.1,0-0.3,0-0.4,0c-0.1,0-0.3,0-0.4,0
			c-0.1,0.1-0.1,0.2-0.2,0.2c-0.1,0.1-0.2,0.2-0.3,0.3c-0.1,0.2-0.2,0.3-0.4,0.5c-0.1,0.2-0.2,0.4-0.4,0.7c-0.2,0.4-0.4,0.9-0.5,1.2
			c-0.1,0.4-0.2,0.7-0.2,0.9l0.8,2.7c0,0-0.1,0-0.2,0c-0.1,0-0.1,0-0.2,0c-0.2,0-0.5,0.1-0.9,0.2s-0.7,0.2-1,0.4
			c-0.3,0.1-0.8,0.3-1.1,0.4c-0.3,0.1-0.7,0.2-0.9,0.2s-0.4-0.1-0.7-0.3c-0.2-0.2-0.2-0.5-0.2-1c0,0,0-0.1,0-0.2s0-0.1,0-0.2
			c0-0.2,0-0.5,0.1-0.8c0-0.2,0.1-0.4,0.1-0.8c0.2-0.5,0.4-1.2,0.9-1.8c0.4-0.7,0.9-1.5,1.4-2.5l-7.1,0.9l-4.2,4.9
			c-0.2,0.4-0.4,0.9-0.7,1.1c-0.2,0.2-0.4,0.4-0.7,0.7c-0.1,0.1-0.2,0.1-0.4,0.2c-0.1,0-0.3,0.1-0.4,0.1c-0.4,0-0.8-0.1-1.1-0.4
			c-0.3-0.3-0.5-0.7-0.8-1c0-0.1,0-0.2-0.1-0.3c0-0.1,0-0.2,0-0.3c0-0.1,0-0.2,0-0.3c0-0.1,0.1-0.2,0.1-0.2l3.4-4
			c-0.3,0.1-0.7,0.2-1,0.2c-0.3,0-0.5,0-0.8,0c-0.9,0-1.5-0.2-1.8-0.5c-0.3-0.3-0.5-0.8-0.5-1.3c0-0.1,0-0.2,0-0.3
			c0-0.1,0-0.2,0.1-0.2c0.1-0.5,0.4-1.1,0.9-1.5c0.4-0.4,1-0.7,1.5-0.8c0.1,0,0.2,0,0.4,0c0.1,0,0.3,0.1,0.4,0.1l6.4-1.5L205.2,13.3
			z"/>
		<path class="st2" d="M231,20c0.5,0.3,0.9,0.5,1.1,0.8c0.2,0.2,0.3,0.5,0.3,0.8c0,0.4-0.2,0.9-0.8,1.4c-0.4,0.5-1,1.2-1.6,2
			c0,0.1-0.1,0.2-0.2,0.2c-0.1,0.1-0.2,0.2-0.2,0.3c-0.1,0.2-0.2,0.3-0.3,0.5s-0.2,0.4-0.2,0.5s0,0.2-0.1,0.3s0,0.2,0,0.3
			c0,0.2,0,0.3,0.1,0.5s0.2,0.3,0.4,0.4c0,0,0.1,0,0.1,0.1h0.1c0.3,0,0.7-0.1,1.2-0.3c0.4-0.2,1-0.5,1.5-0.9
			c0.2-0.1,0.3-0.2,0.5-0.4c0.2-0.1,0.3-0.2,0.5-0.4c0.3-0.3,0.7-0.5,1-0.8s0.5-0.4,0.8-0.7l0.7,1.4c-0.5,0.8-1.1,1.4-1.7,2
			c-0.7,0.7-1.2,1.2-1.8,1.7c-1,0.9-2.1,1.5-2.9,2c-1,0.4-1.8,0.8-2.5,0.8c-0.4,0-0.9-0.1-1.2-0.4c-0.3-0.3-0.4-0.8-0.4-1.4
			c0-0.4,0.1-1.1,0.2-1.7c0.2-0.7,0.4-1.5,0.8-2.4l-6.1,4.8c-0.1,0.1-0.2,0.2-0.4,0.2s-0.3,0.1-0.4,0.1c-0.1,0-0.3,0-0.4,0
			c-0.1,0-0.3-0.1-0.4-0.1c-0.7-0.3-1.2-0.9-1.7-1.6c-0.5-0.8-0.9-1.6-1-2.5c0-0.1,0-0.2-0.1-0.3c-0.1-0.1,0-0.2,0-0.3
			c0-0.2,0-0.3,0-0.5s0.1-0.3,0.1-0.5c0.4-1.4,1.4-2.7,2.9-3.9c1.5-1.2,3.2-2.2,4.9-2.9c0.8-0.3,1.4-0.5,2.1-0.8s1.3-0.4,2-0.5
			c0.4-0.1,0.8-0.2,1.1-0.2c0.3,0,0.7-0.1,1-0.1c0.8,0,1.4,0.1,1.8,0.4c0.4,0.3,0.8,0.5,0.9,1c0,0,0,0.1,0.1,0.2c0,0.1,0,0.1,0,0.2
			c0,0.2-0.1,0.4-0.2,0.7c-0.2,0.2-0.4,0.3-0.9,0.3h-0.1C231.2,20,231.1,20,231,20C231.1,20,231.1,20,231,20L231,20z M228.3,21.2
			c-0.5,0.2-1.2,0.4-1.8,0.7c-0.7,0.2-1.4,0.5-2.1,0.9c-1.1,0.5-2.2,1.1-3.3,1.7c-1,0.7-1.8,1.3-2.3,2.1c-0.1,0.2-0.3,0.4-0.4,0.7
			c-0.1,0.2-0.1,0.4-0.1,0.7c0,0,0,0.1,0,0.2s0,0.1,0,0.2c0,0.2,0.1,0.3,0.2,0.4s0.2,0.1,0.3,0.1c0.4,0,1.2-0.3,2.1-1
			c0.9-0.7,1.8-1.4,2.8-2.2c0.2-0.1,0.3-0.3,0.5-0.4c0.2-0.2,0.3-0.3,0.5-0.5c0.7-0.7,1.3-1.3,2-1.8
			C227.4,22.1,227.9,21.6,228.3,21.2L228.3,21.2z"/>
		<path class="st2" d="M238.4,25.1c0,0.1,0,0.2,0,0.3s0,0.1,0,0.2c0,1.2,0.1,2,0.5,2.5c0.4,0.5,0.9,0.8,1.5,0.8
			c0.7,0,1.4-0.2,2.2-0.5c0.8-0.3,1.6-1,2.4-1.7c0.3-0.2,0.7-0.5,0.9-0.9c0.3-0.3,0.5-0.7,0.9-0.9l1,1.4c-0.3,0.4-0.5,0.8-0.9,1.1
			c-0.3,0.3-0.7,0.7-0.9,1c-1.6,1.5-3,2.6-4.5,3.2c-1.4,0.5-2.4,0.9-2.8,0.9c-1.2,0-2.1-0.3-2.6-1.1c-0.5-0.8-0.8-1.5-0.9-2.5
			c0-0.3-0.1-0.7-0.1-1s0-0.7,0-0.9c0-0.1,0-0.2,0-0.3s0-0.2,0-0.3c0-0.7,0.1-1.3,0.2-2c0.1-0.7,0.3-1.3,0.5-2c0.4-1.4,1.2-2.7,2-4
			c0.9-1.3,1.6-2.5,2.6-3.7c1-1.2,1.8-2.2,2.7-3c0.9-0.9,1.5-1.5,2-2c0.4-0.3,0.9-0.7,1.2-0.9c0.3-0.2,0.7-0.3,1-0.3
			c0.3,0,0.7,0.1,0.9,0.5c0.2,0.3,0.3,1,0.3,2c0,0.4-0.3,1.4-1,3c-0.7,1.6-1.7,3.4-3.3,5.3c-0.2,0.3-0.4,0.5-0.8,0.9
			c-0.2,0.2-0.5,0.5-0.8,0.9c-0.1,0.1-0.1,0.1-0.2,0.2c-0.1,0.1-0.1,0.1-0.2,0.2c-0.1,0.1-0.2,0.2-0.3,0.3c-0.1,0.1-0.2,0.2-0.3,0.3
			c-0.5,0.5-1.1,1.2-1.6,1.7C239.2,24.3,238.8,24.8,238.4,25.1L238.4,25.1z M239.6,21.2c0.2-0.1,0.7-0.5,1.1-1.1
			c0.4-0.5,1-1.2,1.4-1.8c0.2-0.2,0.3-0.4,0.5-0.7c0.1-0.2,0.3-0.4,0.4-0.7c0.4-0.8,0.9-1.4,1.3-2.2c0.3-0.7,0.5-1.2,0.7-1.6
			c-0.3,0.2-0.7,0.4-1,0.9c-0.3,0.3-0.8,0.8-1.1,1.2s-0.7,0.9-1,1.3s-0.7,0.9-0.9,1.3c-0.3,0.5-0.7,1.2-1,1.7
			C239.8,20.2,239.6,20.8,239.6,21.2L239.6,21.2z"/>
		<path class="st2" d="M249.9,25.1c0,0.1,0,0.2,0,0.3s0,0.1,0,0.2c0,1.2,0.1,2,0.5,2.5c0.4,0.5,0.9,0.8,1.5,0.8
			c0.7,0,1.4-0.2,2.2-0.5s1.6-1,2.4-1.7c0.3-0.2,0.7-0.5,0.9-0.9c0.3-0.3,0.5-0.7,0.9-0.9l1,1.4c-0.3,0.4-0.5,0.8-0.9,1.1
			c-0.3,0.3-0.7,0.7-0.9,1c-1.6,1.5-3,2.6-4.5,3.2c-1.4,0.5-2.4,0.9-2.8,0.9c-1.2,0-2.1-0.3-2.6-1.1c-0.5-0.8-0.8-1.5-0.9-2.5
			c0-0.3-0.1-0.7-0.1-1s0-0.7,0-0.9c0-0.1,0-0.2,0-0.3s0-0.2,0-0.3c0-0.7,0.1-1.3,0.2-2c0.1-0.7,0.3-1.3,0.5-2c0.4-1.4,1.2-2.7,2-4
			c0.9-1.3,1.6-2.5,2.6-3.7c1-1.2,1.8-2.2,2.7-3c0.9-0.9,1.5-1.5,2-2c0.4-0.3,0.9-0.7,1.2-0.9c0.3-0.2,0.7-0.3,1-0.3
			s0.7,0.1,0.9,0.5c0.2,0.3,0.3,1,0.3,2c0,0.4-0.3,1.4-1,3c-0.7,1.6-1.7,3.4-3.3,5.3c-0.2,0.3-0.4,0.5-0.8,0.9
			c-0.2,0.2-0.5,0.5-0.8,0.9c-0.1,0.1-0.1,0.1-0.2,0.2c-0.1,0.1-0.1,0.1-0.2,0.2c-0.1,0.1-0.2,0.2-0.3,0.3c-0.1,0.1-0.2,0.2-0.3,0.3
			c-0.5,0.5-1.1,1.2-1.6,1.7C250.8,24.3,250.3,24.8,249.9,25.1L249.9,25.1z M251.1,21.2c0.2-0.1,0.7-0.5,1.1-1.1
			c0.4-0.5,1-1.2,1.4-1.8c0.2-0.2,0.3-0.4,0.5-0.7c0.1-0.2,0.3-0.4,0.4-0.7c0.4-0.8,0.9-1.4,1.3-2.2c0.3-0.7,0.5-1.2,0.7-1.6
			c-0.3,0.2-0.7,0.4-1,0.9c-0.3,0.3-0.8,0.8-1.1,1.2c-0.3,0.4-0.7,0.9-1,1.3c-0.3,0.4-0.7,0.9-0.9,1.3c-0.3,0.5-0.7,1.2-1,1.7
			C251.3,20.2,251.2,20.8,251.1,21.2L251.1,21.2z"/>
	</g>
	<g>
		<path d="M67.1,51.8l0.1-8.5H68l2,5.8l2-5.8h0.8l0.1,8.5h-0.9l0-6l-1.8,5.1h-0.3L68,45.9l0,5.9H67.1z"/>
		<path d="M75.9,51.9c-0.5,0-0.9-0.2-1.2-0.5c-0.3-0.4-0.5-0.8-0.5-1.4c0-0.3,0-0.5,0.1-0.8c0-0.2,0.1-0.4,0.3-0.6
			c0.1-0.2,0.3-0.4,0.4-0.5c0.2-0.2,0.4-0.3,0.7-0.5c0.3-0.2,0.6-0.3,0.9-0.5c0.3-0.1,0.7-0.3,1.1-0.5V46c0-0.8-0.1-1.3-0.2-1.6
			c-0.1-0.3-0.4-0.4-0.8-0.4c-0.8,0-1.2,0.5-1.2,1.5v0.3l-1.1,0c0-0.1,0-0.2,0-0.3c0-0.8,0.2-1.4,0.6-1.7c0.4-0.4,0.9-0.5,1.7-0.5
			c0.8,0,1.3,0.2,1.6,0.7c0.3,0.4,0.5,1.2,0.5,2.1v4.1c0,0.7,0,1.2,0.1,1.7h-1l-0.2-1.2c-0.1,0.4-0.3,0.7-0.7,0.9
			C76.7,51.8,76.3,51.9,75.9,51.9z M76.2,51c0.3,0,0.6-0.1,0.8-0.3c0.2-0.2,0.4-0.4,0.6-0.7v-2.6c0,0-0.1,0-0.1,0.1
			c-0.2,0.1-0.4,0.2-0.5,0.3c-0.1,0.1-0.3,0.2-0.4,0.3c-0.2,0.1-0.3,0.2-0.4,0.3c-0.1,0.1-0.2,0.1-0.3,0.2c-0.1,0.1-0.2,0.2-0.2,0.3
			c0,0.1-0.1,0.2-0.2,0.3c-0.1,0.1-0.1,0.2-0.1,0.3c0,0.1,0,0.3,0,0.4c0,0.4,0.1,0.7,0.3,0.9C75.7,50.9,75.9,51,76.2,51z"/>
		<path d="M80.2,51.8v-8.5h3.1v0.8h-2.1v7.7H80.2z"/>
		<path d="M85.8,51.9c-0.5,0-0.9-0.2-1.2-0.5c-0.3-0.4-0.5-0.8-0.5-1.4c0-0.3,0-0.5,0.1-0.8c0-0.2,0.1-0.4,0.3-0.6
			c0.1-0.2,0.3-0.4,0.4-0.5c0.2-0.2,0.4-0.3,0.7-0.5c0.3-0.2,0.6-0.3,0.9-0.5c0.3-0.1,0.7-0.3,1.1-0.5V46c0-0.8-0.1-1.3-0.2-1.6
			c-0.1-0.3-0.4-0.4-0.8-0.4c-0.8,0-1.2,0.5-1.2,1.5v0.3l-1.1,0c0-0.1,0-0.2,0-0.3c0-0.8,0.2-1.4,0.6-1.7c0.4-0.4,0.9-0.5,1.7-0.5
			c0.8,0,1.3,0.2,1.6,0.7c0.3,0.4,0.5,1.2,0.5,2.1v4.1c0,0.7,0,1.2,0.1,1.7h-1l-0.2-1.2c-0.1,0.4-0.3,0.7-0.7,0.9
			C86.6,51.8,86.3,51.9,85.8,51.9z M86.2,51c0.3,0,0.6-0.1,0.8-0.3c0.2-0.2,0.4-0.4,0.6-0.7v-2.6c0,0-0.1,0-0.1,0.1
			c-0.2,0.1-0.4,0.2-0.5,0.3c-0.1,0.1-0.3,0.2-0.4,0.3c-0.2,0.1-0.3,0.2-0.4,0.3c-0.1,0.1-0.2,0.1-0.3,0.2c-0.1,0.1-0.2,0.2-0.2,0.3
			c0,0.1-0.1,0.2-0.2,0.3c-0.1,0.1-0.1,0.2-0.1,0.3c0,0.1,0,0.3,0,0.4c0,0.4,0.1,0.7,0.3,0.9C85.7,50.9,85.9,51,86.2,51z"/>
		<path d="M92.1,51.9c-1.4,0-2.1-0.8-2.1-2.5h1c0,1.2,0.4,1.7,1.2,1.7c0,0,0,0,0,0c0.4,0,0.7-0.1,0.9-0.5c0.2-0.3,0.3-0.7,0.3-1.2
			c0,0,0-0.1,0-0.1c0-0.6-0.1-1-0.4-1.2c-0.3-0.3-0.7-0.4-1.4-0.4V47c0.6,0,1.1-0.1,1.4-0.4c0.3-0.2,0.4-0.6,0.4-1.1
			c0,0,0-0.1,0-0.1c0-0.4-0.1-0.7-0.3-1c-0.2-0.3-0.5-0.4-0.9-0.4c-0.8,0-1.2,0.5-1.2,1.5h-0.9c0-1.6,0.7-2.4,2.2-2.4
			c0.4,0,0.7,0.1,1,0.2c0.3,0.1,0.5,0.3,0.7,0.5c0.2,0.2,0.3,0.5,0.4,0.7c0.1,0.3,0.1,0.5,0.1,0.8c0,0,0,0,0,0c0,0.6-0.1,1-0.4,1.3
			c-0.3,0.3-0.6,0.5-1,0.6c0.2,0.1,0.4,0.1,0.5,0.2c0.2,0.1,0.3,0.2,0.5,0.4c0.1,0.2,0.3,0.4,0.3,0.6c0.1,0.3,0.1,0.6,0.1,0.9
			c0,0,0,0,0,0.1c0,0.8-0.2,1.3-0.5,1.7C93.3,51.7,92.8,51.9,92.1,51.9C92.1,51.9,92.1,51.9,92.1,51.9z"/>
		<path d="M95.5,51.8v-8.5h0.9v6.5l2.8-6.5h0.9v8.5h-0.9v-6.5l-2.8,6.5H95.5z"/>
		<path d="M101.8,51.8v-8.5h1.1V47h2.7v-3.7h1.1v8.5h-1.1v-4h-2.7v4H101.8z"/>
		<path d="M111.2,51.8l0.1-8.5h0.8l2,5.8l2-5.8h0.8l0.1,8.5H116l0-6l-1.8,5.1h-0.3l-1.8-5.1l0,5.9H111.2z"/>
		<path d="M118.3,53.9V53c0.5,0,0.9-0.1,1.2-0.2c0.3-0.2,0.4-0.4,0.5-0.7c0-0.1,0-0.2,0-0.3c0-0.2,0-0.5-0.1-0.8l-1.8-7.8h1l0.9,4.5
			l0.6,2.9l0.5-2.9l0.8-4.5h1l-1.9,8.7c-0.1,0.4-0.2,0.7-0.4,0.9c-0.1,0.2-0.3,0.4-0.6,0.6c-0.2,0.1-0.5,0.2-0.8,0.3
			C119.1,53.9,118.7,53.9,118.3,53.9z"/>
		<path d="M126,51.9c-1.4,0-2.1-0.8-2.1-2.5h1c0,1.2,0.4,1.7,1.2,1.7c0,0,0,0,0,0c0.4,0,0.7-0.1,0.9-0.5c0.2-0.3,0.3-0.7,0.3-1.2
			c0,0,0-0.1,0-0.1c0-0.6-0.1-1-0.4-1.2c-0.3-0.3-0.7-0.4-1.4-0.4V47c0.6,0,1.1-0.1,1.4-0.4c0.3-0.2,0.4-0.6,0.4-1.1
			c0,0,0-0.1,0-0.1c0-0.4-0.1-0.7-0.3-1c-0.2-0.3-0.5-0.4-0.9-0.4c-0.8,0-1.2,0.5-1.2,1.5h-0.9c0-1.6,0.7-2.4,2.2-2.4
			c0.4,0,0.7,0.1,1,0.2c0.3,0.1,0.5,0.3,0.7,0.5c0.2,0.2,0.3,0.5,0.4,0.7c0.1,0.3,0.1,0.5,0.1,0.8c0,0,0,0,0,0c0,0.6-0.1,1-0.4,1.3
			c-0.3,0.3-0.6,0.5-1,0.6c0.2,0.1,0.4,0.1,0.5,0.2c0.2,0.1,0.3,0.2,0.5,0.4c0.1,0.2,0.3,0.4,0.3,0.6c0.1,0.3,0.1,0.6,0.1,0.9
			c0,0,0,0,0,0.1c0,0.8-0.2,1.3-0.5,1.7C127.2,51.7,126.7,51.9,126,51.9C126,51.9,126,51.9,126,51.9z"/>
		<path d="M129.4,51.8v-8.5h1.1v3.4h0.5c0.6,0,1,0.1,1.4,0.2c0.4,0.1,0.7,0.3,0.9,0.5c0.2,0.2,0.4,0.5,0.4,0.8
			c0.1,0.3,0.1,0.6,0.1,1c0,0.4,0,0.7-0.1,1c-0.1,0.3-0.2,0.5-0.5,0.8c-0.2,0.2-0.5,0.4-0.9,0.5c-0.4,0.1-0.9,0.2-1.5,0.2H129.4z
			 M130.5,51.1h0.4c0.4,0,0.7,0,1-0.1c0.3-0.1,0.5-0.2,0.6-0.4c0.1-0.2,0.2-0.4,0.3-0.6c0.1-0.2,0.1-0.5,0.1-0.8c0-0.2,0-0.4,0-0.6
			c0-0.2-0.1-0.3-0.2-0.5c-0.1-0.2-0.2-0.3-0.3-0.4c-0.1-0.1-0.3-0.2-0.6-0.3c-0.2-0.1-0.5-0.1-0.8-0.1h-0.5V51.1z M135,51.8v-8.5
			h1.1v8.5H135z"/>
		<path d="M137.7,51.8v-8.5h1.1V47h0.6l1.9-3.7h1.1l-2.1,4.1l2.1,4.4h-1.1l-2-4.1h-0.6v4.1H137.7z"/>
		<path d="M144.9,51.9c-0.5,0-0.9-0.2-1.2-0.5c-0.3-0.4-0.5-0.8-0.5-1.4c0-0.3,0-0.5,0.1-0.8c0-0.2,0.1-0.4,0.3-0.6
			c0.1-0.2,0.3-0.4,0.4-0.5c0.2-0.2,0.4-0.3,0.7-0.5c0.3-0.2,0.6-0.3,0.9-0.5c0.3-0.1,0.7-0.3,1.1-0.5V46c0-0.8-0.1-1.3-0.2-1.6
			c-0.1-0.3-0.4-0.4-0.8-0.4c-0.8,0-1.2,0.5-1.2,1.5v0.3l-1.1,0c0-0.1,0-0.2,0-0.3c0-0.8,0.2-1.4,0.6-1.7c0.4-0.4,0.9-0.5,1.7-0.5
			c0.8,0,1.3,0.2,1.6,0.7c0.3,0.4,0.5,1.2,0.5,2.1v4.1c0,0.7,0,1.2,0.1,1.7h-1l-0.2-1.2c-0.1,0.4-0.3,0.7-0.7,0.9
			C145.7,51.8,145.3,51.9,144.9,51.9z M145.2,51c0.3,0,0.6-0.1,0.8-0.3c0.2-0.2,0.4-0.4,0.6-0.7v-2.6c0,0-0.1,0-0.1,0.1
			c-0.2,0.1-0.4,0.2-0.5,0.3c-0.1,0.1-0.3,0.2-0.4,0.3c-0.2,0.1-0.3,0.2-0.4,0.3c-0.1,0.1-0.2,0.1-0.3,0.2c-0.1,0.1-0.2,0.2-0.2,0.3
			c0,0.1-0.1,0.2-0.2,0.3c-0.1,0.1-0.1,0.2-0.1,0.3s0,0.3,0,0.4c0,0.4,0.1,0.7,0.3,0.9C144.7,50.9,144.9,51,145.2,51z"/>
		<path d="M148.6,51.9V51c0.2,0,0.4,0,0.6-0.1c0.2-0.1,0.3-0.2,0.4-0.3c0.1-0.2,0.2-0.4,0.3-0.7c0.1-0.3,0.1-0.7,0.2-1.1
			c0.1-0.4,0.1-1,0.2-1.7l0.3-3.8h3.9v8.5h-1.1v-7.7h-1.9l-0.2,3c0,0.7-0.1,1.2-0.1,1.7c-0.1,0.5-0.1,0.9-0.2,1.2
			c-0.1,0.4-0.2,0.7-0.3,0.9c-0.1,0.2-0.3,0.4-0.4,0.6c-0.2,0.1-0.4,0.3-0.6,0.3c-0.2,0.1-0.5,0.1-0.8,0.1H148.6z"/>
		<path d="M156,51.8v-8.5h1.1v3.4h0.5c0.6,0,1,0.1,1.4,0.2c0.4,0.1,0.7,0.3,0.9,0.5c0.2,0.2,0.4,0.5,0.4,0.8c0.1,0.3,0.1,0.6,0.1,1
			c0,0.4,0,0.7-0.1,1c-0.1,0.3-0.2,0.5-0.5,0.8c-0.2,0.2-0.5,0.4-0.9,0.5c-0.4,0.1-0.9,0.2-1.5,0.2H156z M157,51.1h0.4
			c0.4,0,0.7,0,1-0.1c0.3-0.1,0.5-0.2,0.6-0.4c0.1-0.2,0.2-0.4,0.3-0.6c0.1-0.2,0.1-0.5,0.1-0.8c0-0.2,0-0.4,0-0.6
			c0-0.2-0.1-0.3-0.2-0.5c-0.1-0.2-0.2-0.3-0.3-0.4c-0.1-0.1-0.3-0.2-0.6-0.3c-0.2-0.1-0.5-0.1-0.8-0.1H157V51.1z"/>
		<path d="M161.7,51.8v-8.5h1.1V47h2.7v-3.7h1.1v8.5h-1.1v-4h-2.7v4H161.7z"/>
		<path d="M171.3,51.7c-0.3,0.1-0.7,0.2-1.1,0.2c-0.4,0-0.8-0.1-1.1-0.2c-0.3-0.1-0.5-0.3-0.7-0.6c-0.2-0.3-0.3-0.6-0.4-1
			c-0.1-0.4-0.1-0.8-0.1-1.4v-2.4c0-1.1,0.2-1.9,0.5-2.4s0.9-0.8,1.8-0.8c0.8,0,1.4,0.3,1.8,0.8c0.3,0.5,0.5,1.3,0.5,2.4v2.4
			c0,0.5,0,1-0.1,1.4c-0.1,0.4-0.2,0.7-0.4,1C171.8,51.4,171.6,51.6,171.3,51.7z M170.2,51.1c0.2,0,0.4,0,0.5-0.1
			c0.1-0.1,0.3-0.2,0.3-0.3c0.1-0.1,0.1-0.3,0.2-0.5c0-0.2,0.1-0.4,0.1-0.6c0-0.2,0-0.5,0-0.8v-2.5c0-0.3,0-0.6,0-0.8
			c0-0.2,0-0.4-0.1-0.6c0-0.2-0.1-0.4-0.2-0.5c-0.1-0.1-0.2-0.2-0.3-0.3c-0.1-0.1-0.3-0.1-0.5-0.1c-0.2,0-0.3,0-0.5,0.1
			c-0.1,0-0.2,0.1-0.3,0.2c-0.1,0.1-0.2,0.2-0.2,0.3c-0.1,0.1-0.1,0.3-0.1,0.5c0,0.2,0,0.4,0,0.6c0,0.2,0,0.4,0,0.7v2.5
			c0,0.3,0,0.5,0,0.7c0,0.2,0,0.4,0,0.6c0,0.2,0.1,0.4,0.1,0.5c0.1,0.1,0.1,0.2,0.2,0.3c0.1,0.1,0.2,0.2,0.3,0.2
			S170,51.1,170.2,51.1z"/>
		<path d="M173.9,51.8v-8.5h3.1v0.8H175v7.7H173.9z"/>
		<path d="M181.3,51.7c-0.3,0.1-0.7,0.2-1.1,0.2c-0.4,0-0.8-0.1-1.1-0.2c-0.3-0.1-0.5-0.3-0.7-0.6c-0.2-0.3-0.3-0.6-0.4-1
			c-0.1-0.4-0.1-0.8-0.1-1.4v-2.4c0-1.1,0.2-1.9,0.5-2.4s0.9-0.8,1.8-0.8c0.8,0,1.4,0.3,1.8,0.8c0.3,0.5,0.5,1.3,0.5,2.4v2.4
			c0,0.5,0,1-0.1,1.4c-0.1,0.4-0.2,0.7-0.4,1C181.8,51.4,181.6,51.6,181.3,51.7z M180.2,51.1c0.2,0,0.4,0,0.5-0.1
			c0.1-0.1,0.3-0.2,0.3-0.3c0.1-0.1,0.1-0.3,0.2-0.5c0-0.2,0.1-0.4,0.1-0.6c0-0.2,0-0.5,0-0.8v-2.5c0-0.3,0-0.6,0-0.8
			c0-0.2,0-0.4-0.1-0.6c0-0.2-0.1-0.4-0.2-0.5c-0.1-0.1-0.2-0.2-0.3-0.3c-0.1-0.1-0.3-0.1-0.5-0.1c-0.2,0-0.3,0-0.5,0.1
			c-0.1,0-0.2,0.1-0.3,0.2c-0.1,0.1-0.2,0.2-0.2,0.3c-0.1,0.1-0.1,0.3-0.1,0.5c0,0.2,0,0.4,0,0.6c0,0.2,0,0.4,0,0.7v2.5
			c0,0.3,0,0.5,0,0.7c0,0.2,0,0.4,0,0.6c0,0.2,0.1,0.4,0.1,0.5c0.1,0.1,0.1,0.2,0.2,0.3c0.1,0.1,0.2,0.2,0.3,0.2
			S180,51.1,180.2,51.1z"/>
		<path d="M190.1,51.7c-0.3,0.1-0.7,0.2-1.1,0.2c-0.4,0-0.8-0.1-1.1-0.2c-0.3-0.1-0.5-0.3-0.7-0.6c-0.2-0.3-0.3-0.6-0.4-1
			c-0.1-0.4-0.1-0.8-0.1-1.4v-2.4c0-1.1,0.2-1.9,0.5-2.4s0.9-0.8,1.8-0.8c0.8,0,1.4,0.3,1.8,0.8c0.3,0.5,0.5,1.3,0.5,2.4v2.4
			c0,0.5,0,1-0.1,1.4c-0.1,0.4-0.2,0.7-0.4,1C190.7,51.4,190.4,51.6,190.1,51.7z M189,51.1c0.2,0,0.4,0,0.5-0.1
			c0.1-0.1,0.3-0.2,0.3-0.3c0.1-0.1,0.1-0.3,0.2-0.5c0-0.2,0.1-0.4,0.1-0.6c0-0.2,0-0.5,0-0.8v-2.5c0-0.3,0-0.6,0-0.8
			c0-0.2,0-0.4-0.1-0.6c0-0.2-0.1-0.4-0.2-0.5c-0.1-0.1-0.2-0.2-0.3-0.3c-0.1-0.1-0.3-0.1-0.5-0.1c-0.2,0-0.3,0-0.5,0.1
			c-0.1,0-0.2,0.1-0.3,0.2c-0.1,0.1-0.2,0.2-0.2,0.3c-0.1,0.1-0.1,0.3-0.1,0.5c0,0.2,0,0.4-0.1,0.6c0,0.2,0,0.4,0,0.7v2.5
			c0,0.3,0,0.5,0,0.7c0,0.2,0,0.4,0.1,0.6c0,0.2,0.1,0.4,0.1,0.5c0.1,0.1,0.1,0.2,0.2,0.3c0.1,0.1,0.2,0.2,0.3,0.2
			S188.9,51.1,189,51.1z"/>
		<path d="M195.2,51.9C195.2,51.9,195.2,51.9,195.2,51.9c-0.7,0-1.3-0.2-1.7-0.7c-0.4-0.5-0.7-1.2-0.7-2.1v-5c0-0.6,0-1.1,0.1-1.5
			c0-0.4,0.1-0.8,0.2-1c0.1-0.3,0.2-0.5,0.3-0.7c0.1-0.2,0.3-0.3,0.4-0.4c0.2-0.1,0.4-0.2,0.6-0.2c0.2-0.1,0.5-0.1,0.7-0.2
			c0.2,0,0.5-0.1,0.8-0.2c0.3-0.1,0.7-0.2,1-0.3l0.2,0.9c-0.3,0.1-0.6,0.2-0.9,0.3c-0.3,0.1-0.6,0.1-0.8,0.2c-0.2,0-0.4,0.1-0.6,0.1
			c-0.2,0.1-0.4,0.1-0.5,0.2c-0.1,0.1-0.2,0.2-0.3,0.4c-0.1,0.2-0.2,0.4-0.2,0.7s-0.1,0.7-0.1,1.1v1.1c0.2-0.2,0.5-0.3,0.8-0.5
			c0.4-0.1,0.7-0.2,1-0.2c0.7,0,1.2,0.2,1.5,0.7c0.3,0.5,0.5,1.3,0.5,2.5v1.5c0,0.6-0.1,1.2-0.2,1.6c-0.1,0.4-0.3,0.8-0.5,1
			c-0.2,0.2-0.5,0.4-0.8,0.5C196,51.9,195.6,51.9,195.2,51.9z M195.3,51.1c0.5,0,0.8-0.2,1-0.5c0.2-0.3,0.3-0.9,0.3-1.7v-2
			c0-0.8-0.1-1.4-0.3-1.7c-0.2-0.3-0.5-0.5-0.9-0.5c-0.2,0-0.5,0.1-0.8,0.2c-0.3,0.1-0.6,0.3-0.8,0.5v3.8c0,0.7,0.1,1.2,0.4,1.5
			C194.5,51,194.8,51.1,195.3,51.1C195.3,51.1,195.3,51.1,195.3,51.1z"/>
		<path d="M202.4,51.7c-0.3,0.1-0.7,0.2-1.1,0.2c-0.4,0-0.8-0.1-1.1-0.2c-0.3-0.1-0.5-0.3-0.7-0.6c-0.2-0.3-0.3-0.6-0.4-1
			c-0.1-0.4-0.1-0.8-0.1-1.4v-2.4c0-1.1,0.2-1.9,0.5-2.4s0.9-0.8,1.8-0.8c0.8,0,1.4,0.3,1.8,0.8c0.3,0.5,0.5,1.3,0.5,2.4v2.4
			c0,0.5,0,1-0.1,1.4c-0.1,0.4-0.2,0.7-0.4,1C203,51.4,202.7,51.6,202.4,51.7z M201.3,51.1c0.2,0,0.4,0,0.5-0.1
			c0.1-0.1,0.3-0.2,0.3-0.3c0.1-0.1,0.1-0.3,0.2-0.5c0-0.2,0.1-0.4,0.1-0.6c0-0.2,0-0.5,0-0.8v-2.5c0-0.3,0-0.6,0-0.8
			c0-0.2,0-0.4-0.1-0.6c0-0.2-0.1-0.4-0.2-0.5c-0.1-0.1-0.2-0.2-0.3-0.3c-0.1-0.1-0.3-0.1-0.5-0.1c-0.2,0-0.3,0-0.5,0.1
			c-0.1,0-0.2,0.1-0.3,0.2c-0.1,0.1-0.2,0.2-0.2,0.3c-0.1,0.1-0.1,0.3-0.1,0.5c0,0.2,0,0.4-0.1,0.6c0,0.2,0,0.4,0,0.7v2.5
			c0,0.3,0,0.5,0,0.7c0,0.2,0,0.4,0.1,0.6c0,0.2,0.1,0.4,0.1,0.5c0.1,0.1,0.1,0.2,0.2,0.3c0.1,0.1,0.2,0.2,0.3,0.2
			S201.1,51.1,201.3,51.1z"/>
		<path d="M205.1,54.6V43.3h1.1V44c0.5-0.6,1-0.8,1.6-0.8c0.3,0,0.6,0.1,0.8,0.2c0.2,0.1,0.4,0.3,0.6,0.5c0.1,0.2,0.2,0.5,0.3,0.8
			c0.1,0.3,0.1,0.6,0.2,0.9c0,0.3,0,0.6,0,1v1.8c0,0.4,0,0.9-0.1,1.2c0,0.4-0.1,0.7-0.2,1s-0.2,0.6-0.4,0.8
			c-0.2,0.2-0.3,0.4-0.6,0.5c-0.2,0.1-0.5,0.2-0.8,0.2c-0.5,0-1.1-0.3-1.5-0.8v3.5H205.1z M207.5,51.1c0.2,0,0.4,0,0.5-0.1
			c0.1-0.1,0.2-0.2,0.3-0.3c0.1-0.1,0.1-0.3,0.2-0.6c0-0.2,0.1-0.5,0.1-0.7c0-0.3,0-0.6,0-1v-1.8c0-0.9-0.1-1.6-0.2-1.9
			c-0.2-0.4-0.5-0.6-0.9-0.6c-0.4,0-0.9,0.2-1.3,0.7v5.8C206.5,50.9,207,51.1,207.5,51.1z"/>
		<path d="M211,53.9V53c0.5,0,0.9-0.1,1.2-0.2c0.3-0.2,0.4-0.4,0.5-0.7c0-0.1,0-0.2,0-0.3c0-0.2,0-0.5-0.1-0.8l-1.8-7.8h1l0.9,4.5
			l0.6,2.9l0.5-2.9l0.8-4.5h1l-1.9,8.7c-0.1,0.4-0.2,0.7-0.4,0.9c-0.1,0.2-0.3,0.4-0.6,0.6c-0.2,0.1-0.5,0.2-0.8,0.3
			C211.8,53.9,211.4,53.9,211,53.9z"/>
		<path d="M216.1,53.8v-2.8c0.4-0.2,0.7-0.5,0.9-0.9c0.2-0.4,0.4-1,0.6-1.8c0.2-0.8,0.3-1.8,0.3-3.1l0.1-2h3.5V51h0.9v2.8h-0.8
			l-0.1-2H217l-0.1,2H216.1z M217.2,51h3.3v-6.9h-1.6l-0.1,1.4c0,1.2-0.1,2.2-0.3,3c-0.1,0.7-0.3,1.3-0.5,1.7
			C217.8,50.5,217.6,50.8,217.2,51z"/>
		<path d="M226.9,51.7c-0.3,0.1-0.7,0.2-1.1,0.2c-0.4,0-0.8-0.1-1.1-0.2c-0.3-0.1-0.5-0.3-0.7-0.6c-0.2-0.3-0.3-0.6-0.4-1
			c-0.1-0.4-0.1-0.8-0.1-1.4v-2.4c0-1.1,0.2-1.9,0.5-2.4s0.9-0.8,1.8-0.8c0.8,0,1.4,0.3,1.8,0.8c0.3,0.5,0.5,1.3,0.5,2.4v2.4
			c0,0.5,0,1-0.1,1.4c-0.1,0.4-0.2,0.7-0.4,1C227.4,51.4,227.2,51.6,226.9,51.7z M225.8,51.1c0.2,0,0.4,0,0.5-0.1
			c0.1-0.1,0.3-0.2,0.3-0.3c0.1-0.1,0.1-0.3,0.2-0.5c0-0.2,0.1-0.4,0.1-0.6c0-0.2,0-0.5,0-0.8v-2.5c0-0.3,0-0.6,0-0.8
			c0-0.2,0-0.4-0.1-0.6c0-0.2-0.1-0.4-0.2-0.5c-0.1-0.1-0.2-0.2-0.3-0.3c-0.1-0.1-0.3-0.1-0.5-0.1c-0.2,0-0.3,0-0.5,0.1
			c-0.1,0-0.2,0.1-0.3,0.2c-0.1,0.1-0.2,0.2-0.2,0.3c-0.1,0.1-0.1,0.3-0.1,0.5c0,0.2,0,0.4,0,0.6c0,0.2,0,0.4,0,0.7v2.5
			c0,0.3,0,0.5,0,0.7c0,0.2,0,0.4,0,0.6c0,0.2,0.1,0.4,0.1,0.5c0.1,0.1,0.1,0.2,0.2,0.3c0.1,0.1,0.2,0.2,0.3,0.2
			S225.6,51.1,225.8,51.1z"/>
		<path d="M229.5,51.8v-8.5h2.1c0.4,0,0.7,0.1,1,0.2c0.3,0.1,0.5,0.3,0.7,0.5c0.2,0.2,0.3,0.4,0.3,0.6c0.1,0.2,0.1,0.5,0.1,0.8
			c0,0,0,0,0,0c0,0.9-0.4,1.5-1.1,1.8c0.8,0.2,1.3,0.9,1.3,2.1c0,0.4,0,0.7-0.1,1c-0.1,0.3-0.2,0.5-0.3,0.8
			c-0.2,0.2-0.4,0.4-0.7,0.5c-0.3,0.1-0.7,0.2-1.1,0.2H229.5z M230.6,46.9h1.1c0.3,0,0.6-0.1,0.8-0.4c0.2-0.2,0.3-0.6,0.3-1.1
			c0-0.4-0.1-0.8-0.3-1c-0.2-0.2-0.5-0.3-1-0.3h-0.9V46.9z M230.6,51h0.9c0.5,0,0.8-0.1,1-0.4c0.2-0.3,0.3-0.7,0.3-1.3
			c0-0.6-0.1-1-0.3-1.3s-0.5-0.3-1-0.3h-1V51z"/>
		<path d="M236.7,51.9c-0.5,0-0.9-0.2-1.2-0.5c-0.3-0.4-0.5-0.8-0.5-1.4c0-0.3,0-0.5,0.1-0.8c0-0.2,0.1-0.4,0.3-0.6
			c0.1-0.2,0.3-0.4,0.4-0.5c0.2-0.2,0.4-0.3,0.7-0.5c0.3-0.2,0.6-0.3,0.9-0.5c0.3-0.1,0.7-0.3,1.1-0.5V46c0-0.8-0.1-1.3-0.2-1.6
			c-0.1-0.3-0.4-0.4-0.8-0.4c-0.8,0-1.2,0.5-1.2,1.5v0.3l-1.1,0c0-0.1,0-0.2,0-0.3c0-0.8,0.2-1.4,0.6-1.7c0.4-0.4,0.9-0.5,1.7-0.5
			c0.7,0,1.3,0.2,1.6,0.7c0.3,0.4,0.5,1.2,0.5,2.1v4.1c0,0.7,0,1.2,0.1,1.7h-1l-0.2-1.2c-0.1,0.4-0.3,0.7-0.7,0.9
			C237.5,51.8,237.2,51.9,236.7,51.9z M237.1,51c0.3,0,0.5-0.1,0.8-0.3c0.2-0.2,0.4-0.4,0.6-0.7v-2.6c0,0-0.1,0-0.1,0.1
			c-0.2,0.1-0.4,0.2-0.5,0.3c-0.1,0.1-0.3,0.2-0.4,0.3c-0.2,0.1-0.3,0.2-0.4,0.3c-0.1,0.1-0.2,0.1-0.3,0.2c-0.1,0.1-0.2,0.2-0.2,0.3
			c0,0.1-0.1,0.2-0.2,0.3c-0.1,0.1-0.1,0.2-0.1,0.3c0,0.1,0,0.3,0,0.4c0,0.4,0.1,0.7,0.3,0.9C236.6,50.9,236.8,51,237.1,51z"/>
		<path d="M241.1,51.8v-8.5h1.1V47h2.7v-3.7h1.1v8.5h-1.1v-4h-2.7v4H241.1z"/>
		<path d="M247.5,51.8v-8.5h0.9v6.5l2.8-6.5h0.9v8.5h-0.9v-6.5l-2.8,6.5H247.5z"/>
		<path d="M253.2,51.8l1.7-3.7c-0.4-0.2-0.7-0.5-0.9-0.9c-0.2-0.4-0.3-0.9-0.3-1.4c0-0.4,0-0.7,0.1-1c0.1-0.3,0.2-0.5,0.4-0.8
			c0.2-0.2,0.5-0.4,0.9-0.5c0.4-0.1,0.9-0.2,1.4-0.2h1.5v8.5H257v-3.4c-0.5,0-0.9,0-1.1,0l-1.5,3.5H253.2z M256.6,47.7h0.4V44h-0.5
			c-0.4,0-0.7,0-1,0.1c-0.3,0.1-0.4,0.2-0.6,0.4c-0.1,0.2-0.2,0.4-0.3,0.6s-0.1,0.5-0.1,0.8c0,0.7,0.1,1.1,0.4,1.4
			C255.4,47.5,255.9,47.7,256.6,47.7z"/>
	</g>
</g>
</svg>
